<svg xmlns="http://www.w3.org/2000/svg" viewBox="0 0 211.06 106.55"><defs><style>.cls-1{fill:#004c8c;}.cls-2{fill:#6dac92;}.cls-3{fill:#fff;}</style></defs><title>Ativo 6</title><g id="Camada_2" data-name="Camada 2"><g id="Camada_1-2" data-name="Camada 1"><rect class="cls-1" width="92.3" height="106.55"/><path class="cls-1" d="M114.47,98.69v.1c4.25.23,5.15,2.94,9.51,2.43l-.38,3.09c-4.72.49-7.74-2.88-11.42-3.13a9.42,9.42,0,0,0-2.49.15l.45-2.32c-5-.63-7.68-4.12-7.68-10.7,0-8.25,5.2-11.16,9.72-11.16,4.81,0,9.13,3,9.13,11.16C121.31,93.86,118.91,97.54,114.47,98.69ZM112,96.16c4.1,0,5.25-3.88,5.25-7.75,0-3.29-.87-7.93-5.31-7.93-4.13,0-5.49,3.83-5.49,7.67C106.5,91.83,107.4,96.16,112,96.16Z"/><path class="cls-1" d="M138.68,99h-5.24v-2.1a6.23,6.23,0,0,1-5.21,2.52c-3.22,0-5-1.78-5-5.57V86.37c0-.68-.26-.87-.81-.9l-1-.06V82.77h5.68V93c0,2,.31,3.45,2.38,3.45a3.18,3.18,0,0,0,3.45-3.2V86.45c0-.73-.2-.95-.81-1l-1-.06V82.77h5.68V95.4c0,.72.2.88.8.94l1.13.1Z"/><path class="cls-1" d="M145.38,96.31l1.83.1V99h-7.67V96.55l1.06-.11c.59-.07.94-.26.94-1V86.45c0-.73-.18-.95-.8-.95l-1.13-.07V82.77h5.77Zm-2.26-20.46a2.39,2.39,0,0,1,2.45,2.43,2.34,2.34,0,0,1-2.49,2.35,2.3,2.3,0,0,1-2.46-2.35A2.37,2.37,0,0,1,143.12,75.85Z"/><path class="cls-1" d="M155.7,93,153,96.31l1.51.1V99h-6.71V96.44l1-.1a1.72,1.72,0,0,0,1.3-.77l3.7-4.64-4-5.49-1.64-.2V82.77h7.5V85.3l-.93.06a.49.49,0,0,0-.38.85l1.84,2.45,2.49-3.23-1.33-.1V82.77H164v2.51l-1,.06a1.74,1.74,0,0,0-1.3.81l-3.55,4.49,4.22,5.6,1.66.2V99h-7.69V96.44l1-.07c.61,0,.61-.41.33-.8Z"/><path class="cls-1" d="M177.6,95.4c0,.72.19.91.8.94l1,.07V99H174.3V97.12l-.09,0a5.37,5.37,0,0,1-4.41,2.31c-4.55,0-6.45-3.22-6.45-7.82,0-5.69,2.7-9.3,8.52-9.3a18.16,18.16,0,0,1,5.74,1.13Zm-3.75-9.9a6.69,6.69,0,0,0-2.47-.41c-3.08,0-4.1,2.87-4.1,6.35,0,2.68.65,5.22,3.35,5.22a3,3,0,0,0,3.22-2.8Z"/><path class="cls-1" d="M189.56,82.67V79.4c0-.54-.29-.72-.83-.75l-1.38-.1V76h6v19.6c0,.57.25.75.8.75l1.13.07V99h-5.22v-1.9l-.1,0a5,5,0,0,1-4.39,2.34c-5,0-6.51-3.87-6.51-7.89,0-5.51,2.84-9.23,7.87-9.23A8.47,8.47,0,0,1,189.56,82.67Zm0,2.94a5.8,5.8,0,0,0-2.44-.52c-3.07,0-4.1,2.89-4.1,6.06,0,2.92.7,5.42,3.48,5.42A2.81,2.81,0,0,0,189.56,94Z"/><path class="cls-1" d="M209.06,95.4c0,.72.2.91.8.94l1,.07V99h-5.13V97.12l-.09,0a5.38,5.38,0,0,1-4.42,2.31c-4.55,0-6.45-3.22-6.45-7.82,0-5.69,2.7-9.3,8.51-9.3a18.11,18.11,0,0,1,5.74,1.13Zm-3.75-9.9a6.71,6.71,0,0,0-2.47-.41c-3.07,0-4.1,2.87-4.1,6.35,0,2.68.65,5.22,3.35,5.22a3,3,0,0,0,3.22-2.8Zm-1.16-11.87,1.52.7c1.33.62,1.07,1.66.14,2.56l-4.13,4-1.26-1.07Z"/><path class="cls-1" d="M108.27,61c-2.38,0-3.55,1.69-3.55,4.52s1,4.77,3.58,4.71a5,5,0,0,0,1.36-.17c.34-.11.39-.25.39-.62V67.93l1.91.15v3.23a8.58,8.58,0,0,1-3.69.75c-3.82,0-5.9-2.12-5.9-6.39,0-4.89,3-6.52,5.9-6.52a8.28,8.28,0,0,1,3.51.77v3.18l-1.91.14V61.76c0-.35-.05-.49-.39-.62A4.74,4.74,0,0,0,108.27,61Z"/><path class="cls-1" d="M124.72,61l-1.18-.1V59.36h4.28l3.82,10.81h0l1.07.08v1.57H127.9V70.31l.72-.06c.4,0,.59-.14.46-.54l-.4-1.18h-4.39l-.55,1.65,1.12.08v1.57h-4.32V70.31l.61-.06c.33,0,.45-.15.55-.51Zm0,5.82h3.49l-1.71-5.34h0Z"/><path class="cls-1" d="M148.19,67.84h0l3.18-8.47h3.73V60.9l-.63.05c-.32,0-.56.14-.54.65l.48,8.57,1.17.08v1.57h-4.51V70.31l.66-.06c.3,0,.5-.12.49-.48l-.35-6.61h0L149,70.63h-1.78l-2.85-7.39h0l-.38,6.93,1.22.08v1.57h-4.42V70.31l.66-.06a.5.5,0,0,0,.49-.48l.48-8.73L141.25,61v-1.6H145Z"/><path class="cls-1" d="M164.13,70.31l.62-.06c.32,0,.55-.14.55-.51V61L164.22,61v-1.6h5.36c2.76,0,4.45,1.31,4.45,3.84,0,2.83-2,4.28-4.87,4.28h-1.58v2.7l1.79.08v1.57h-5.25Zm4.79-4.67c1.63,0,2.75-.54,2.75-2.2,0-1.94-1.12-2.26-2.94-2.26h-1.14v4.46Z"/><path class="cls-1" d="M185.87,67.78c0,1.84,1,2.38,2.47,2.38a2.14,2.14,0,0,0,2.44-2.29V61l-1.1-.06v-1.6h4.44V60.9l-.63.05a.5.5,0,0,0-.51.56V68.2c0,2.46-1.89,3.86-4.74,3.86-3.07,0-4.66-1.22-4.66-4.17V61L182.54,61v-1.6h4.52V60.9l-.62.05c-.35,0-.57.14-.57.62Z"/><path class="cls-1" d="M208.57,68.36c0-1.19-1-1.53-2.38-1.87-1.84-.51-3.59-1.27-3.59-3.68,0-2.26,1.78-3.65,4.35-3.65a7.92,7.92,0,0,1,3.53.77v2.79l-1.92.14v-1.1c0-.35-.06-.49-.37-.62A5.13,5.13,0,0,0,207,61c-1.1,0-2,.47-2,1.63s1.1,1.46,2.5,1.91c1.7.53,3.5,1.31,3.5,3.73s-1.94,3.8-4.52,3.8a8.81,8.81,0,0,1-3.8-.75v-3l1.92-.16v1.17c0,.34.06.51.39.62a4.7,4.7,0,0,0,1.36.16C207.58,70.15,208.57,69.77,208.57,68.36Z"/><path class="cls-2" d="M111.21,38.07c0,6.83,3.56,8.85,9.14,8.85s9.07-2.79,9.07-8.52V12.87l-4.06-.21V6.71h16.55v5.67l-2.32.2c-1.24.14-2,.7-2,2.09V39.6c0,9.13-6.89,14.43-17.5,14.43-11.45,0-17.32-4.59-17.32-15.57V12.87l-4.05-.21V6.71h16.9v5.67l-2.31.2c-1.33.14-2.09.57-2.09,2.31Z"/><path class="cls-2" d="M142.67,47.48l2.3-.2c1.18-.14,2-.57,2-2V12.87l-4-.21V6.71h33.7V18.33l-7.11.48V16c0-1.32-.16-2.15-2-2.15h-12.1V26.2h17.17v7.11H155.49V47l6.21.22v5.91h-19Z"/><path class="cls-2" d="M197.23,12.81c-8.78,0-13.17,6.25-13.17,16.81,0,10.95,3.63,17.71,13.3,17.52a17.61,17.61,0,0,0,5.11-.65c1.25-.41,1.47-1,1.47-2.3V38.62l7.11.47V51.17c-3.85,2-9.35,2.86-13.83,2.86-14.15,0-21.9-7.95-21.9-23.85,0-18.22,11.16-24.29,21.9-24.29a32.23,32.23,0,0,1,13.12,2.87V20.62l-7.11.47V15.66c0-1.31-.22-1.86-1.48-2.3A16.24,16.24,0,0,0,197.23,12.81Z"/><path class="cls-3" d="M25.25,22.69l-8.71,4.47-3.28-5.74L26.8,13h7.3V54.27l7.74.37V61H15.93v-6.1l7.16-.45c1.4-.08,2.16-.6,2.16-2.45Z"/><path class="cls-3" d="M77.92,36.54c0,17.63-6.11,25.17-17.43,25.17S43.38,54.17,43.38,36.85c0-17.14,7-24.8,17.63-24.8C71.44,12.05,77.92,19,77.92,36.54Zm-8.86.15c0-13.54-3.36-17.34-8.26-17.34-5.21,0-8.42,4.25-8.42,18.32,0,12.87,3.2,16.89,8.26,16.89S69.06,50.85,69.06,36.69Z"/><path class="cls-3" d="M18.57,77.23,16.73,77V74.7h6.65l5.92,16.73h0L31,91.5V94H23.49V91.64l1.11-.1c.6,0,.91-.22.7-.85l-.61-1.81H17.9L17,91.43l1.73.07V94h-6.7V91.64l1-.1c.51,0,.68-.25.87-.81Zm0,9H24l-2.61-8.27h-.1Z"/><path class="cls-3" d="M31.61,91.64l1-.1c.49,0,.76-.22.76-.81V77.25l-1.64-.08V74.7H37L45.17,88h.06V77.25l-1.91-.08V74.7H50.4V77l-1.05.09c-.43,0-.7.29-.7.89V94H45.27L36.87,80.47h-.05v11l1.88.07V94H31.61Z"/><path class="cls-3" d="M57.8,94.36c-5.16,0-8.41-3.36-8.41-10,0-7.43,4.66-10,8.73-10,4.33,0,8.22,2.66,8.22,10C66.33,91,62.88,94.36,57.8,94.36Zm.2-2.93c3.68,0,4.73-3.47,4.73-7,0-3-.78-7.14-4.79-7.14-3.71,0-4.91,3.46-4.91,6.92C53,87.54,53.83,91.43,58,91.43Z"/><path class="cls-3" d="M75.69,88.59c0-1.83-1.65-2.34-3.68-2.9-2.87-.78-5.53-1.95-5.53-5.66,0-3.52,2.71-5.68,6.72-5.68a12.5,12.5,0,0,1,5.44,1.2V79.9l-2.95.19V78.4c0-.54-.1-.78-.6-.95a6.77,6.77,0,0,0-1.89-.22c-1.71,0-3,.68-3,2.47s1.68,2.3,3.85,3c2.64.84,5.42,2,5.42,5.78s-3,5.91-7,5.91a13.2,13.2,0,0,1-5.85-1.19V88.59l3-.21v1.76c0,.57.08.79.6,1a7.35,7.35,0,0,0,2.1.27C74.12,91.38,75.69,90.76,75.69,88.59Z"/><rect class="cls-2" x="5.41" y="66.07" width="81.48" height="2"/></g></g></svg>