<svg xmlns="http://www.w3.org/2000/svg" viewBox="0 0 86.15 149.78"><defs><style>.cls-1,.cls-2{fill:#004c8c;}.cls-2{fill-rule:evenodd;}</style></defs><title>Ativo 7</title><g id="Camada_2" data-name="Camada 2"><g id="Camada_1-2" data-name="Camada 1"><path class="cls-1" d="M4.12,136.13a23.16,23.16,0,0,0,.48,5,12.37,12.37,0,0,0,1.29,3.47A9.42,9.42,0,0,0,7.76,147a10.13,10.13,0,0,0,2.37,1.57,11.86,11.86,0,0,0,2.47.84,14,14,0,0,0,2.32.34c.72,0,1.36.07,1.91.06a16.39,16.39,0,0,0,2.74-.21,11.91,11.91,0,0,0,2.86-.86,12.06,12.06,0,0,0,2.9-1.87,9.14,9.14,0,0,0,2.05-2.53,11.62,11.62,0,0,0,1.17-3,20.68,20.68,0,0,0,.54-3.33c.08-1.14.12-2.29.12-3.42V127c0-.87,0-1.6,0-2.19s0-1.09,0-1.49,0-.73,0-1,0-.55,0-.81a3.54,3.54,0,0,1,.37-1.62,1.55,1.55,0,0,1,1.14-.7l.61-.1a5.53,5.53,0,0,1,.58,0,1.68,1.68,0,0,0,.55-.07.32.32,0,0,0,.18-.3.28.28,0,0,0-.21-.28,1.92,1.92,0,0,0-.65-.08l-1.33,0c-.48,0-.95,0-1.42,0l-1.19,0-.72,0-.46,0-1.12,0c-.47,0-1,0-1.51,0l-1.61,0a1.78,1.78,0,0,0-.64.08.28.28,0,0,0-.21.28.29.29,0,0,0,.17.3,1.49,1.49,0,0,0,.52.07c.15,0,.32,0,.5,0a4.58,4.58,0,0,1,.53,0,3.29,3.29,0,0,1,.43.07,2.55,2.55,0,0,1,1,.42,1.55,1.55,0,0,1,.53.74,4.21,4.21,0,0,1,.19,1.16c0,.26,0,.53,0,.81s0,.63,0,1,0,.89,0,1.49,0,1.32,0,2.19v8.27c0,1.06,0,2.07-.05,3a22.25,22.25,0,0,1-.29,2.76,10.8,10.8,0,0,1-.7,2.38,6.42,6.42,0,0,1-1.33,1.94,6.87,6.87,0,0,1-1.79,1.3,8.08,8.08,0,0,1-1.94.69,9,9,0,0,1-1.9.21,11.43,11.43,0,0,1-1.53-.1,7.39,7.39,0,0,1-1.74-.48,7.19,7.19,0,0,1-1.83-1.1,6.81,6.81,0,0,1-1.35-1.43,8,8,0,0,1-1-2,13.68,13.68,0,0,1-.62-2.79,29,29,0,0,1-.22-3.85V127c0-.87,0-1.6,0-2.19s0-1.09,0-1.49,0-.73,0-1,0-.55,0-.81a3.59,3.59,0,0,1,.37-1.62,1.53,1.53,0,0,1,1.14-.7l.6-.1c.18,0,.36,0,.58,0a1.32,1.32,0,0,0,.48-.07.32.32,0,0,0,.17-.3.28.28,0,0,0-.21-.28,2.06,2.06,0,0,0-.67-.08l-1.28,0c-.47,0-.94,0-1.43,0l-1.34,0-1,0-1.61,0-2.11-.06c-.77,0-1.51,0-2.24,0a2,2,0,0,0-.69.08.29.29,0,0,0-.21.28.3.3,0,0,0,.17.3,1.47,1.47,0,0,0,.52.07l.9,0a5.33,5.33,0,0,1,.7.1,2.51,2.51,0,0,1,1,.42,1.54,1.54,0,0,1,.53.74A4.06,4.06,0,0,1,4,121.51c0,.26,0,.53,0,.81s0,.63,0,1,0,.89,0,1.49,0,1.32,0,2.19v9.12Zm39.77-2.08a.45.45,0,0,1,.07-.29.23.23,0,0,1,.21-.08h3.68l1.41,0a9.56,9.56,0,0,1,1,.06,3.16,3.16,0,0,1,1.05.32,2.55,2.55,0,0,1,.68.54,2.3,2.3,0,0,1,.35.6,6.1,6.1,0,0,1,.18.71,3.13,3.13,0,0,1,.05.55.86.86,0,0,0,.08.4.27.27,0,0,0,.25.18.33.33,0,0,0,.35-.25,1.54,1.54,0,0,0,.05-.53c0-.08,0-.23,0-.47s0-.51,0-.83,0-.62,0-.91,0-.57.05-.77c.07-.65.14-1.2.21-1.65a8.55,8.55,0,0,0,.12-.89c0-.24-.08-.37-.25-.37a.38.38,0,0,0-.28.11,3.36,3.36,0,0,0-.26.31,1.62,1.62,0,0,1-.74.54,3.22,3.22,0,0,1-1,.19c-.28,0-.57,0-.87,0h-1l-5.23,0a.24.24,0,0,1-.23-.1.46.46,0,0,1-.05-.27V121.1a.84.84,0,0,1,.09-.46.29.29,0,0,1,.28-.11l6.29.13a4.82,4.82,0,0,1,1.33.21,2.76,2.76,0,0,1,.88.46,1.54,1.54,0,0,1,.48.57,3.13,3.13,0,0,1,.22.86,5.65,5.65,0,0,1,0,.69,1.26,1.26,0,0,0,.11.49.31.31,0,0,0,.29.17.34.34,0,0,0,.3-.17,1,1,0,0,0,.11-.4c0-.13,0-.36.07-.67s0-.65.05-1,0-.7.05-1,0-.51,0-.62a9.25,9.25,0,0,1,.21-1.21,4.62,4.62,0,0,0,.12-.63.46.46,0,0,0-.09-.26.25.25,0,0,0-.21-.11.64.64,0,0,0-.31.09l-.34.15a3,3,0,0,1-.7.11l-1,.05-1,0H41.44l-1.11,0-1.48-.05-1.66,0-1.65,0a2.1,2.1,0,0,0-.7.08.32.32,0,0,0-.24.33.27.27,0,0,0,.19.25,1.4,1.4,0,0,0,.51.07l.88,0a4.86,4.86,0,0,1,.7.1,2.54,2.54,0,0,1,1,.42,1.57,1.57,0,0,1,.53.74,4.28,4.28,0,0,1,.19,1.16c0,.26,0,.53,0,.81s0,.63,0,1,0,.89,0,1.49,0,1.32,0,2.18v10.35c0,2,0,3.71,0,5.18s-.08,2.66-.17,3.53a9.82,9.82,0,0,1-.19,1.09,2.15,2.15,0,0,1-.35.77,1,1,0,0,1-.64.4c-.18,0-.39.08-.65.11a6.84,6.84,0,0,1-.83,0,.87.87,0,0,0-.48.09.26.26,0,0,0-.14.24.33.33,0,0,0,.22.32,1.79,1.79,0,0,0,.64.08l1.31,0c.49,0,1,0,1.47,0l1.36,0,1,0,1.51,0,2.18.07,2.52,0a1.72,1.72,0,0,0,.68-.09.32.32,0,0,0,.21-.31.23.23,0,0,0-.15-.24,1.09,1.09,0,0,0-.55-.09c-.19,0-.41,0-.65,0l-.74-.07-.65-.08a1.65,1.65,0,0,1-.93-.4,1.76,1.76,0,0,1-.46-.77,5.22,5.22,0,0,1-.19-1.09c-.09-.86-.16-2-.18-3.53s0-3.21,0-5.18v-3.3Zm32.95,15.73c.66,0,1.33,0,2-.05s1.36-.1,2-.17,1.27-.18,1.84-.29a9.84,9.84,0,0,0,1.47-.42,2.1,2.1,0,0,0,.53-.28.93.93,0,0,0,.32-.35,3.45,3.45,0,0,0,.21-.55c.08-.29.16-.63.25-1.05s.16-.86.23-1.32.15-.92.22-1.34.11-.8.15-1.11a5.39,5.39,0,0,0,.05-.62.91.91,0,0,0-.08-.43.32.32,0,0,0-.3-.18.33.33,0,0,0-.34.16,1.82,1.82,0,0,0-.18.65,5.4,5.4,0,0,1-.29.85,6.64,6.64,0,0,1-.47,1,6.4,6.4,0,0,1-.63.88A5.79,5.79,0,0,1,82,146.55a8.17,8.17,0,0,1-2.44.68,22.1,22.1,0,0,1-3.19.18,10.78,10.78,0,0,1-2.85-.4,13,13,0,0,1-2.91-1.21,13.59,13.59,0,0,1-2.72-2A13.83,13.83,0,0,1,65.64,141a14.18,14.18,0,0,1-1.55-3.64,17,17,0,0,1-.57-4.45,22.29,22.29,0,0,1,.32-3.89A13.61,13.61,0,0,1,65,125.37a10.61,10.61,0,0,1,2.31-3.08,8.59,8.59,0,0,1,2-1.38,9.46,9.46,0,0,1,2.51-.86,15.18,15.18,0,0,1,3.17-.29,18.38,18.38,0,0,1,3.53.33,13.13,13.13,0,0,1,2.85.91,6.28,6.28,0,0,1,1.91,1.29,5.92,5.92,0,0,1,1.16,1.81,5.43,5.43,0,0,1,.43,2,2.21,2.21,0,0,0,.08.66.34.34,0,0,0,.34.23.37.37,0,0,0,.36-.23,2.19,2.19,0,0,0,.11-.7c0-.21,0-.49,0-.85s0-.74,0-1.17,0-.84,0-1.26,0-.79,0-1.14.06-.86.09-1.15.06-.52.08-.69,0-.31,0-.41a.45.45,0,0,0-.13-.32.79.79,0,0,0-.49-.16c-.6-.07-1.24-.18-1.92-.32s-1.39-.27-2.16-.38l-1.81-.22c-.59-.05-1.21-.1-1.87-.13s-1.41-.06-2.25-.06a25,25,0,0,0-5.4.53,16.48,16.48,0,0,0-4.21,1.48,15.09,15.09,0,0,0-3.3,2.32,13.73,13.73,0,0,0-2.4,2.89,14.63,14.63,0,0,0-1.47,3,16.34,16.34,0,0,0-.72,2.87,15.44,15.44,0,0,0-.2,2.42,19.47,19.47,0,0,0,.24,3.06,14.94,14.94,0,0,0,.8,3.13,14,14,0,0,0,1.55,3.06,14.56,14.56,0,0,0,2.48,2.8,16.49,16.49,0,0,0,4,2.58,19.42,19.42,0,0,0,4.68,1.42A29,29,0,0,0,76.84,149.78Z"/><path class="cls-2" d="M22.83,101.87l-.14-5a30.75,30.75,0,0,1-5.9-3.5,26.12,26.12,0,0,1-9-12.43h0l-4.94-.47h0a2.2,2.2,0,0,1-1.48-.66,3.05,3.05,0,0,1-.57-2.52,18.73,18.73,0,0,1,.72-3.05A67.17,67.17,0,0,0,3.6,66.5a13.68,13.68,0,0,0-.36-7.24c0-.13-.11-.25-.17-.38a1,1,0,0,1,1.58-1.23l.37.28A19.09,19.09,0,0,1,9.12,62c.29-.65.6-1.28.9-1.94a13.16,13.16,0,0,0,1.41-5.58c0-.11,0-.23,0-.34a1,1,0,0,1,1.87-.62,3.56,3.56,0,0,1,.24.38l0,0,0,.05c1.92,4.62,1.54,8.45.36,13l2-.17a1.18,1.18,0,0,1,1.5,1.36c.06,1.47.13,2.93.2,4.4A15,15,0,0,0,22.3,83.19l-.07-2.88a13.35,13.35,0,0,1-2.69-7.77L17.75,31.71l.88-.11,2.17-.3-.13-4.62a1,1,0,0,1-.48-.32,1.15,1.15,0,0,1-.29-.82,2.7,2.7,0,0,1,.33-5h.07l1.2-.19.15-.18a16.62,16.62,0,0,1-2.43-2.53c-.14-.18-.26-.36-.38-.54a3.68,3.68,0,0,1-.86-2,3.14,3.14,0,0,1,1-2.38c.26-.27.49-.56.74-.84A4.1,4.1,0,0,0,20.92,9.5a1.19,1.19,0,0,0,0-.15s0-.11,0-.16a.81.81,0,0,1,.52-.69.82.82,0,0,1,.85.22l.13.15.18.23a10.18,10.18,0,0,1,1.79-2.45,9.15,9.15,0,0,1,2.3-1.6,4.17,4.17,0,0,0,2.1-4,.52.52,0,0,0,0-.13.79.79,0,0,1,.42-.89.77.77,0,0,1,1,.22l.11.14a5.46,5.46,0,0,1,1.54,3.27,4,4,0,0,1-.45,1.84A3.84,3.84,0,0,0,31,6.63a1,1,0,0,0,.09.63A2.85,2.85,0,0,0,32.28,5.6c.09-.43.29-.81.82-.81a.8.8,0,0,1,.76.6,1,1,0,0,0,.06.17,5.72,5.72,0,0,1-.21,4.67c-.16.42-.38.81-.59,1.22a5.06,5.06,0,0,0-.48,1.16.3.3,0,0,0,.09.2,4.11,4.11,0,0,1,1.09,3.29c-.25,1.73-1.71,3.12-3.21,4.06l.09.11,1.31.2h.08a2.7,2.7,0,0,1,.24,5.08,1.22,1.22,0,0,1-.29.78,1.1,1.1,0,0,1-.47.32l-.1,3.58c2.07-.14,4.15-.24,6.22-.3l-.1-3.28a1.08,1.08,0,0,1-.47-.32,1.22,1.22,0,0,1-.28-.82,2.7,2.7,0,0,1,.32-5h.08l1.19-.19.2-.25a16.09,16.09,0,0,1-2.35-2.46L35.89,17a3.63,3.63,0,0,1-.86-2,3.14,3.14,0,0,1,1-2.38c.25-.27.49-.56.73-.84A4.12,4.12,0,0,0,38,9.5c0-.05,0-.09,0-.15a1.54,1.54,0,0,1,0-.16.8.8,0,0,1,.52-.69.81.81,0,0,1,.85.22,1.94,1.94,0,0,1,.14.15l.18.23a10.55,10.55,0,0,1,1.79-2.45,9.14,9.14,0,0,1,2.3-1.6,4.18,4.18,0,0,0,2.11-4,1.19,1.19,0,0,0,0-.13.77.77,0,0,1,.41-.89.77.77,0,0,1,1,.22l.12.14a5.48,5.48,0,0,1,1.53,3.27,4,4,0,0,1-.45,1.84,3.75,3.75,0,0,0-.37,1.06,1,1,0,0,0,.09.63A2.81,2.81,0,0,0,49.31,5.6c.09-.43.31-.81.82-.81a.79.79,0,0,1,.76.6,1.54,1.54,0,0,1,.06.17,5.73,5.73,0,0,1-.2,4.67c-.17.42-.39.81-.59,1.22a5.41,5.41,0,0,0-.49,1.16.32.32,0,0,0,.09.2,4.16,4.16,0,0,1,1.1,3.29c-.25,1.77-1.78,3.16-3.29,4.12l0,.06,1.31.2H49a2.7,2.7,0,0,1,.24,5.08,1.15,1.15,0,0,1-.29.78,1,1,0,0,1-.48.32L48.38,30q3.09.1,6.17.31l-.11-3.59a1,1,0,0,1-.47-.32,1.22,1.22,0,0,1-.3-.82,2.7,2.7,0,0,1,.34-5h.08l1.19-.19.17-.21a16.46,16.46,0,0,1-2.38-2.5c-.14-.18-.26-.36-.38-.54a3.58,3.58,0,0,1-.85-2,3.08,3.08,0,0,1,1-2.38c.26-.27.48-.56.73-.84A4.09,4.09,0,0,0,54.76,9.5a1.41,1.41,0,0,0,0-.15,1.36,1.36,0,0,0,0-.16.81.81,0,0,1,.52-.69.83.83,0,0,1,.86.22l.13.15.18.23a10.16,10.16,0,0,1,1.8-2.45,8.77,8.77,0,0,1,2.29-1.6,4.18,4.18,0,0,0,2.1-4s0-.09,0-.13a.77.77,0,0,1,.42-.89A.77.77,0,0,1,64,.3l.11.14a5.43,5.43,0,0,1,1.54,3.27,3.94,3.94,0,0,1-.45,1.84,3.85,3.85,0,0,0-.38,1.06,1.07,1.07,0,0,0,.1.63A2.87,2.87,0,0,0,66.12,5.6c.09-.43.3-.81.82-.81a.81.81,0,0,1,.76.6.71.71,0,0,0,.05.17,5.7,5.7,0,0,1-.21,4.67c-.16.42-.38.81-.59,1.22a5.47,5.47,0,0,0-.48,1.16c0,.07,0,.14.09.2a4.14,4.14,0,0,1,1.1,3.29c-.26,1.75-1.76,3.14-3.26,4.09l.07.09,1.31.2h.07a2.7,2.7,0,0,1,.23,5.08,1.16,1.16,0,0,1-.28.78,1.12,1.12,0,0,1-.48.32l-.13,4.61c.77.09,1.54.18,2.31.3l.88.12L66.62,72.54a13.31,13.31,0,0,1-2.84,8h0l-.08,2.84a15,15,0,0,0,4.78-10.71c.06-1.47.13-2.93.19-4.4A1.37,1.37,0,0,1,69,67.13a1.29,1.29,0,0,1,1.14-.27l2,.17c-1.18-4.59-1.55-8.43.36-13l0-.05,0,0a4.08,4.08,0,0,1,.24-.38A1,1,0,0,1,74,53.12a1.06,1.06,0,0,1,.71,1v.34A13.2,13.2,0,0,0,76.13,60c.3.65.61,1.29.91,1.94a19,19,0,0,1,4.08-4.06c.13-.09.25-.19.37-.28a1,1,0,0,1,1.57,1.23l-.17.38a13.89,13.89,0,0,0-.36,7.24,68.48,68.48,0,0,0,2.11,7.73,19.12,19.12,0,0,1,.71,3.05,3,3,0,0,1-.58,2.52,2.16,2.16,0,0,1-1.47.66h0l-4.94.47h0a26,26,0,0,1-9,12.43A30.5,30.5,0,0,1,63.15,97l.16-.07-.15,5c.4,0,.81,0,1.17,0l.84,0,0,.83a1.66,1.66,0,0,1-.52,1.22,3.26,3.26,0,0,1-.94.55.93.93,0,0,0-.4.3s0,0,0,.06a1.05,1.05,0,0,0,0,.15c0,.68.1,1.26-.5,1.75a1.6,1.6,0,0,1-.73.34,2.3,2.3,0,0,1-4.15,0,1.64,1.64,0,0,1-.73-.34,1.16,1.16,0,0,1-.29-.33,1.88,1.88,0,0,1-.2-1,1.83,1.83,0,0,0,0-.59.94.94,0,0,0-.4-.3,3.32,3.32,0,0,1-.93-.55,1.73,1.73,0,0,1-.53-1.22l0-.83.83,0c.33,0,.71,0,1.08,0l-.07-2.68h0a53.92,53.92,0,0,1-10.22,1.35l-.09,3.08a11.93,11.93,0,0,1,1.22,0l.83,0,0,.84a1.69,1.69,0,0,1-.52,1.21,3.54,3.54,0,0,1-.94.56.89.89,0,0,0-.4.3.14.14,0,0,0,0,.06,1.54,1.54,0,0,0,0,.15c0,.67.11,1.25-.5,1.75a1.57,1.57,0,0,1-.73.33,2.3,2.3,0,0,1-4.15,0,1.58,1.58,0,0,1-.73-.33,1.15,1.15,0,0,1-.28-.33,1.86,1.86,0,0,1-.22-1,1.56,1.56,0,0,0,0-.6,1,1,0,0,0-.4-.3,3.46,3.46,0,0,1-.94-.56,1.74,1.74,0,0,1-.53-1.21l0-.84.83,0c.34,0,.74,0,1.12,0l-.09-3.07a53.77,53.77,0,0,1-10.24-1.38l-.08,2.72c.4,0,.81,0,1.17,0l.83,0,0,.83a1.68,1.68,0,0,1-.53,1.22,3.35,3.35,0,0,1-.94.55,1,1,0,0,0-.4.3s0,0,0,.06a.85.85,0,0,0,0,.15c0,.68.11,1.26-.49,1.75a1.67,1.67,0,0,1-.72.34,2.31,2.31,0,0,1-4.16,0,1.65,1.65,0,0,1-.73-.34,1.11,1.11,0,0,1-.28-.33,1.8,1.8,0,0,1-.22-1,1.63,1.63,0,0,0,0-.59.86.86,0,0,0-.4-.3,3.39,3.39,0,0,1-.94-.55,1.68,1.68,0,0,1-.52-1.22l0-.83.83,0c.33,0,.71,0,1.08,0ZM18.75,32.56c4.06-.56,8.06-1,12-1.27L35,36.23l2.28-2,3.83,4.47-2.28,2,4.28,5,2.29-2,3.83,4.47-2.29,2,4.28,5,2.29-2,3.83,4.47-2.29,2,3.8,4.43.49.58,2.28-2,3.82,4.47h0l-2.28,2L65.67,72v.46c-.21,5.09-2.92,10.21-11.18,12.58l-3.72-4.35-.49-.57-2.29,2-3.82-4.47h0l2.28-2-4.28-5,.26-.23-2.55,2.18L36,68.18l2.29-2-4.28-5-2.28,2L27.93,58.7l2.29-2-4.29-5-2.28,2-3.83-4.47,2.29-2-2.86-3.33-.5-11.38Zm13.08-1.33,3.26,3.83,2.3-2,4.91,5.74-2.29,2,3.21,3.74,2.28-2,4.91,5.73-2.29,2L51.32,54l2.28-2,4.91,5.74-2.28,1.95,3.19,3.75,2.29-2,4.2,4.9,1.48-33.87a176.16,176.16,0,0,0-35.55-1.33Zm34,36.69-1.52,1.3,1.39,1.67.13-3ZM53.41,85.36l.15-.13-3.4-3.89-2.28,2L43,77.56l2.28-2-3.2-3.73-2.29,2-4.91-5.73,2.29-2-3.2-3.74-2.28,2-4.91-5.73,2.29-2-3.2-3.74-2.28,2-4-4.71,1,22.35c.28,6.94,5.21,13.94,22.58,13.94a43.44,43.44,0,0,0,10.34-1.08Zm-34-36.91,1.49-1.27-1.61-1.72.13,3Zm2.72-28.88a3.14,3.14,0,0,1,1.05-.26.34.34,0,0,1,0-.2A6.22,6.22,0,0,1,21,16a3.16,3.16,0,0,1,.28-2.41,6.27,6.27,0,0,0,.61-2.84,9,9,0,0,1,1,2.87,3.87,3.87,0,0,0-.9,1,3.7,3.7,0,0,0-.09,2.82,5.1,5.1,0,0,1,0-.52A2.8,2.8,0,0,1,22.61,15,3.52,3.52,0,0,0,23,17c.08.15.15.28.23.4a4.14,4.14,0,0,1-.17-1.19,3.18,3.18,0,0,1,.24-1.09,4.52,4.52,0,0,1,1.33-1.72A4,4,0,0,0,26.31,10a5.42,5.42,0,0,1-1.69,2.46c-.16.11-.31.21-.49.32s-.55.32-.8.49a8.83,8.83,0,0,1,2.54-3.63c.42-.33.79-.75,1.21-1.11.23-.2.44-.4.63-.59a7.36,7.36,0,0,0,1.75-3.87,5.5,5.5,0,0,1-1.4,5.17,7.62,7.62,0,0,0-1.22,2c-.29.75-.1.9.16,1.63a6.46,6.46,0,0,1,.39,2.91,4.6,4.6,0,0,1-1.9,3.42h1.3c1.94-1.38,3.46-4.08,3-6.34,3,2.47.86,5-1.5,6.42l.28,0a3.93,3.93,0,0,1,1.47.32c2.52-1.56,4.18-3.84,2.06-6.32a1,1,0,0,1-.24-.81A17.86,17.86,0,0,1,33,9.94a5,5,0,0,0,0-4.42,3.55,3.55,0,0,1-1.84,2.59,16.39,16.39,0,0,0-1.92,1.52c-.07-.71.76-1.48,1.17-1.93a1.83,1.83,0,0,1-.21-1.17c.14-1,.86-1.68.82-2.78a5.22,5.22,0,0,0-1.52-3,4.91,4.91,0,0,1-2.47,5A8.36,8.36,0,0,0,25,7.21a10.76,10.76,0,0,0-2.47,4.12,3.05,3.05,0,0,0-.77-2.13,4.65,4.65,0,0,1-1.45,3.15c-.26.3-.47.57-.75.86a2.37,2.37,0,0,0-.77,1.8,3,3,0,0,0,.71,1.59c.11.18.24.35.36.52a15.74,15.74,0,0,0,2.34,2.44Zm1.72-.32H24l-1-1.66a4,4,0,0,1-.25-.42,4.24,4.24,0,0,1-.44-1.3,3.35,3.35,0,0,0-.22,1.08c0,.17,0,.33,0,.5v.26a6.58,6.58,0,0,0,1.23,1.19l.52.37Zm.26,0,.87,0a6.06,6.06,0,0,0,1.2-1.08,4.45,4.45,0,0,0,.9-2.38,6.18,6.18,0,0,0-.37-2.78c-.28-.78-.49-1-.16-1.83a7.85,7.85,0,0,1,1.26-2h0a5.64,5.64,0,0,0,1.42-2.74,3.28,3.28,0,0,0,.05-.62,6,6,0,0,1-1.4,2.43c-.21.22-.42.42-.65.61s-.42.39-.63.59l-.05.69a6.08,6.08,0,0,1-.29,1.69,4.42,4.42,0,0,1-1.46,1.91,4.5,4.5,0,0,0-1.25,1.62,2.73,2.73,0,0,0-.21,1,3.28,3.28,0,0,0,.16,1.1l.55,1.85s.05,0,.07,0Zm3.09,0,.58,0a10,10,0,0,0,1-.6c2-1.41,3.07-3.24,1.39-5.08a7.57,7.57,0,0,1-2.93,5.66ZM32.53,7.89c-.86,1.52-3.17,1.81-4.2,3.25a4.57,4.57,0,0,0,.11,4.54c0-.09,0-.18,0-.26a12.58,12.58,0,0,1,.17-2.2c.33-1.2,1.35-1.54,2.22-2.5.37-.42.65-.85,1-1.27A3.22,3.22,0,0,0,32.15,9a3.67,3.67,0,0,0,.38-1.1Zm-10,5.61a5.35,5.35,0,0,0-.5-1.61,9.36,9.36,0,0,1-.56,1.81,3,3,0,0,0-.28,2.23,3.34,3.34,0,0,0,.13.36,4.05,4.05,0,0,1,.34-1.79v0a4.19,4.19,0,0,1,.85-1Zm3.53-3.67,0,0A8.07,8.07,0,0,0,24,12.57l0,0a5.4,5.4,0,0,0,.47-.3,5.1,5.1,0,0,0,1.6-2.35l0-.06Zm5.63-.7c-1.07.75-2.45,1.16-3.17,2.16a3.82,3.82,0,0,0-.35,3v0a7.31,7.31,0,0,1,.13-1.16c.36-1.3,1.46-1.69,2.29-2.62.36-.4.66-.85,1-1.26l.11-.14Zm7.45,10.4a3.22,3.22,0,0,1,1.08-.24.45.45,0,0,1,0-.19A6.17,6.17,0,0,1,38,16a3.13,3.13,0,0,1,.28-2.41,6.44,6.44,0,0,0,.62-2.84,9.4,9.4,0,0,1,1,2.87,3.83,3.83,0,0,0-.91,1,3.72,3.72,0,0,0-.08,2.82v-.52A2.7,2.7,0,0,1,39.65,15a3.43,3.43,0,0,0,.42,2c.07.15.16.28.24.4a3.57,3.57,0,0,1-.17-1.19,2.92,2.92,0,0,1,.22-1.09,4.83,4.83,0,0,1,1.33-1.72A4,4,0,0,0,43.34,10a5.33,5.33,0,0,1-1.69,2.46,4.2,4.2,0,0,1-.5.32c-.26.16-.54.32-.79.49a8.86,8.86,0,0,1,2.56-3.63c.42-.33.78-.75,1.2-1.11a7.48,7.48,0,0,0,.63-.59,7.34,7.34,0,0,0,1.75-3.87,5.5,5.5,0,0,1-1.41,5.17,7.51,7.51,0,0,0-1.22,2c-.3.75-.1.9.16,1.63a6.21,6.21,0,0,1,.39,2.91,4.54,4.54,0,0,1-1.89,3.42h.53l.77,0c2-1.39,3.45-4.08,3-6.35,3,2.48.85,5-1.53,6.43h.19a3.84,3.84,0,0,1,1.54.35c2.54-1.56,4.24-3.86,2.11-6.35a1,1,0,0,1-.23-.81A17.45,17.45,0,0,1,50,9.94a4.93,4.93,0,0,0,.06-4.42,3.54,3.54,0,0,1-1.85,2.59,17.52,17.52,0,0,0-1.91,1.52c-.08-.71.77-1.48,1.17-1.93a1.81,1.81,0,0,1-.22-1.17c.14-1,.85-1.68.82-2.78a5.23,5.23,0,0,0-1.53-3,4.89,4.89,0,0,1-2.46,5A8.19,8.19,0,0,0,42,7.21a10.79,10.79,0,0,0-2.48,4.12,3,3,0,0,0-.76-2.13,4.73,4.73,0,0,1-1.45,3.15c-.27.3-.47.57-.76.86a2.38,2.38,0,0,0-.77,1.8,2.92,2.92,0,0,0,.71,1.59l.36.52a15.91,15.91,0,0,0,2.31,2.41Zm1.75-.29h.14l-1-1.66a3.88,3.88,0,0,1-.24-.42,3.93,3.93,0,0,1-.43-1.3,2.88,2.88,0,0,0-.22,1.08,4.66,4.66,0,0,0,0,.5v.26a6.37,6.37,0,0,0,1.23,1.19l.51.36Zm.26,0,.87,0a6,6,0,0,0,1.2-1.07,4.51,4.51,0,0,0,.9-2.38,6,6,0,0,0-.38-2.78c-.27-.78-.48-1-.15-1.83a7.91,7.91,0,0,1,1.26-2h0A5.64,5.64,0,0,0,46.3,6.32a4.23,4.23,0,0,0,.05-.62,6,6,0,0,1-1.41,2.43,6.88,6.88,0,0,1-.65.61c-.21.18-.42.39-.62.59l-.05.69a6.43,6.43,0,0,1-.29,1.69,4.48,4.48,0,0,1-1.46,1.91,4.56,4.56,0,0,0-1.26,1.62,2.78,2.78,0,0,0-.2,1,3.55,3.55,0,0,0,.16,1.1l.54,1.85s0,0,.07,0Zm3.09,0,.58,0a9.34,9.34,0,0,0,1-.61c2-1.41,3.07-3.24,1.39-5.08a7.58,7.58,0,0,1-2.93,5.66ZM49.56,7.89c-.87,1.52-3.18,1.81-4.21,3.25s-.58,3.38.11,4.54v-.26a13.16,13.16,0,0,1,.16-2.2C46,12,47,11.67,47.84,10.71c.38-.42.66-.85,1-1.27A3,3,0,0,0,49.17,9a3.49,3.49,0,0,0,.4-1.1Zm-10,5.61a5.61,5.61,0,0,0-.49-1.61,9.63,9.63,0,0,1-.57,1.81,2.91,2.91,0,0,0-.28,2.23l.13.36a4.65,4.65,0,0,1,.34-1.79l0,0v0a4,4,0,0,1,.85-1Zm3.52-3.67,0,0A8,8,0,0,0,41,12.57l0,0c.16-.1.32-.19.46-.3a5,5,0,0,0,1.6-2.35l0-.06Zm5.64-.7c-1.07.75-2.45,1.16-3.17,2.16a3.82,3.82,0,0,0-.36,3,.07.07,0,0,1,0,0,5.93,5.93,0,0,1,.14-1.16c.36-1.3,1.45-1.69,2.28-2.62.36-.4.65-.85,1-1.26l.1-.14ZM56,19.54a3.26,3.26,0,0,1,1-.24.27.27,0,0,1,0-.2A6.2,6.2,0,0,1,54.72,16,3.13,3.13,0,0,1,55,13.61a6.32,6.32,0,0,0,.61-2.84,9.39,9.39,0,0,1,1,2.87,4.06,4.06,0,0,0-.91,1,3.7,3.7,0,0,0-.07,2.82,3.28,3.28,0,0,1,0-.52A2.72,2.72,0,0,1,56.38,15a3.5,3.5,0,0,0,.42,2c.07.15.16.28.24.4a3.84,3.84,0,0,1-.17-1.19,3.11,3.11,0,0,1,.22-1.09,4.67,4.67,0,0,1,1.34-1.72A4,4,0,0,0,60.07,10a5.35,5.35,0,0,1-1.69,2.46,5.68,5.68,0,0,1-.49.32c-.28.16-.54.32-.8.49a8.84,8.84,0,0,1,2.55-3.63c.42-.33.79-.75,1.21-1.11.23-.2.44-.4.63-.59a7.37,7.37,0,0,0,1.74-3.87,5.47,5.47,0,0,1-1.41,5.17,7.74,7.74,0,0,0-1.22,2c-.29.75-.1.9.16,1.63a6.35,6.35,0,0,1,.4,2.91,4.55,4.55,0,0,1-1.9,3.42h1.3c1.94-1.38,3.46-4.08,3-6.34,3,2.47.86,5-1.5,6.42l.3,0a3.91,3.91,0,0,1,1.5.34c2.54-1.57,4.22-3.86,2.09-6.34a1,1,0,0,1-.23-.81,17.15,17.15,0,0,1,1.12-2.54,4.91,4.91,0,0,0,0-4.42,3.54,3.54,0,0,1-1.83,2.59,16,16,0,0,0-1.92,1.52c-.08-.71.77-1.48,1.17-1.93a1.83,1.83,0,0,1-.22-1.17c.14-1,.85-1.68.82-2.78a5.24,5.24,0,0,0-1.53-3,4.9,4.9,0,0,1-2.46,5,8.11,8.11,0,0,0-2.11,1.47,10.76,10.76,0,0,0-2.48,4.12,3,3,0,0,0-.77-2.13,4.7,4.7,0,0,1-1.45,3.15c-.27.3-.48.57-.75.86A2.37,2.37,0,0,0,52.6,15a2.92,2.92,0,0,0,.71,1.59c.11.18.24.35.36.52A15.66,15.66,0,0,0,56,19.54Zm1.67-.3h.14l-1-1.67-.24-.42a4.4,4.4,0,0,1-.44-1.3,3.21,3.21,0,0,0-.21,1.08c0,.17,0,.33,0,.5v.26a6.11,6.11,0,0,0,1.24,1.19l.51.37Zm.26,0,.87,0A6,6,0,0,0,60,18.11a4.3,4.3,0,0,0,.89-2.38,6,6,0,0,0-.36-2.78c-.29-.78-.49-1-.16-1.83a7.73,7.73,0,0,1,1.25-2h0A5.67,5.67,0,0,0,63,6.32a3.55,3.55,0,0,0,.06-.62,6,6,0,0,1-1.41,2.43,7.28,7.28,0,0,1-.65.61c-.22.18-.43.39-.62.59l-.06.69a6.08,6.08,0,0,1-.29,1.69,4.51,4.51,0,0,1-1.45,1.91,4.4,4.4,0,0,0-1.26,1.62,3,3,0,0,0-.21,1,3.64,3.64,0,0,0,.16,1.1l.55,1.85s.05,0,.07,0Zm3.09,0,.59,0a8.44,8.44,0,0,0,1-.6c2-1.41,3.07-3.24,1.39-5.08A7.6,7.6,0,0,1,61,19.21ZM66.3,7.89c-.87,1.52-3.19,1.81-4.21,3.25a4.55,4.55,0,0,0,.12,4.54c0-.09,0-.18,0-.26a13.92,13.92,0,0,1,.17-2.2c.33-1.2,1.35-1.54,2.22-2.5.38-.42.66-.85,1-1.27A2.35,2.35,0,0,0,65.9,9a3.78,3.78,0,0,0,.4-1.1Zm-10,5.61a5.27,5.27,0,0,0-.5-1.61,9.45,9.45,0,0,1-.57,1.81A3,3,0,0,0,55,15.93a2.14,2.14,0,0,0,.13.36,4.22,4.22,0,0,1,.33-1.79v0l0,0a4,4,0,0,1,.85-1Zm3.52-3.67,0,0a8,8,0,0,0-2.1,2.71l0,0c.16-.1.31-.19.46-.3a5.07,5.07,0,0,0,1.61-2.35l0-.06Zm5.64-.7c-1.07.75-2.46,1.16-3.17,2.16a3.83,3.83,0,0,0-.35,3v0a6.69,6.69,0,0,1,.13-1.16c.36-1.3,1.46-1.69,2.28-2.62.36-.4.66-.85,1-1.26l.11-.14ZM23.27,81.52l.07,2.58.31.25.5.37-.07-.05,0-2.43c-.27-.23-.52-.46-.76-.71Zm1.42,1.27.06,2.34-.09-.06c.39.26.79.49,1.19.72l0,0V83.56c-.34-.23-.69-.46-1-.71l-.09-.07Zm1.67,1.12,0,2.17c.36.19.73.37,1.1.54l0-2.08c-.38-.19-.76-.4-1.14-.62Zm1.18.64.52.25-.52-.25Zm.57.27,0,2.06h0l.86.34-.14-.05.06-2c-.25-.11-.5-.21-.75-.32Zm1.75.71-.06,2a37.36,37.36,0,0,0,9.6,1.67h0l-.06-1.9a35.33,35.33,0,0,1-9.47-1.77Zm10.49,1.83.05,1.89.71,0,0-1.88-.71,0Zm1.38,0,.05,1.88h1V87.41Zm1.57,0,0,1.88h1l0-1.88Zm1.69,0v1.88l.67,0,.06-1.89-.72,0Zm1.73-.07-.05,1.89a37.54,37.54,0,0,0,9.68-1.68l-.15,0-.06-2a35.82,35.82,0,0,1-9.41,1.73ZM57.15,85.2l.06,2h0l.73-.29,0-2-.72.31Zm.73-.31Zm.65-.3,0,2.07c.35-.16.68-.32,1-.49V84c-.35.2-.71.38-1.06.56Zm1.62-.9,0,2.18c.37-.21.75-.43,1.11-.67l0-2.3c-.38.28-.76.54-1.16.79Zm1.77-1.28,0,2.37c.2-.14.41-.28.6-.43l.17-.13h0l.07-2.56c-.26.26-.53.5-.82.75ZM21.81,31.18l1-.13h0l-.07-3.2a.69.69,0,0,1,.72-.67h0a.7.7,0,0,1,.68.5H24a.7.7,0,0,0-.71.66L23.35,31h0l2.12-.22h0V27.85a.69.69,0,0,1,.71-.67h0a.72.72,0,0,1,.7.5h-.17a.68.68,0,0,0-.71.66v2.39l2.12-.2,0-2.67a.71.71,0,0,1,.72-.67h0a.7.7,0,0,1,.69.5h-.16a.7.7,0,0,0-.72.66v2.15h0l1.78-.14h0l.11-4a42.55,42.55,0,0,0-8.88,0l.14,4.81ZM38.7,29.94l1,0h0l0-2.06a.7.7,0,0,1,.72-.67h0a.7.7,0,0,1,.68.5h-.16a.71.71,0,0,0-.73.66l0,1.57,2.14,0v-2a.68.68,0,0,1,.71-.67h0a.73.73,0,0,1,.7.5h-.17a.7.7,0,0,0-.72.66l0,1.55h.54l1.58,0,0-2a.7.7,0,0,1,.71-.67h0a.71.71,0,0,1,.69.5h-.16a.69.69,0,0,0-.71.66l0,1.57h0l1.79,0,.11-3.58a42.55,42.55,0,0,0-8.88,0l.11,3.57Zm16.87.41,1,.08h0l-.06-2.57a.69.69,0,0,1,.71-.67h0a.72.72,0,0,1,.69.5h-.17a.68.68,0,0,0-.71.66l.06,2.13,2.13.19h0l0-2.8a.69.69,0,0,1,.71-.67h0a.72.72,0,0,1,.69.5h-.17a.7.7,0,0,0-.71.66V30.7l2.12.21,0-3.06a.7.7,0,0,1,.71-.67h0a.72.72,0,0,1,.69.5h-.17a.69.69,0,0,0-.7.66l0,2.64,1.77.2.14-4.8a42.6,42.6,0,0,0-8.88,0l.12,4ZM11.71,76.61l2.6.25.43,0h.48v0a2.06,2.06,0,0,0,0,.22.41.41,0,0,0,0,.12l0,.14c0,.07.05.15.07.22l0,0h0l-.68-.12-.6-.09-2.65-.33L10.79,77l-.7,0h0v0a1.45,1.45,0,0,0,0-.19c0-.05,0-.09,0-.14s0-.09,0-.13,0-.13-.07-.2h0c.37-.17.73-.36,1.09-.56l.06,0,3.5-1.92v0c0,.13,0,.25,0,.38s0,.16,0,.24a.89.89,0,0,0,0,.15c0,.13.07.26.1.38v0h0l-.46.2-.37.18-2.29,1.23Zm31.37,23c8.93,0,18.37-1.49,25.69-7.06A25.31,25.31,0,0,0,78.83,73.06L79,69c0-.35,0-.41-.15-.43H78.6l-8.49-.73c-.49,0-.43-.07-.45.43-.07,1.46-.13,2.93-.2,4.39a15.92,15.92,0,0,1-6.37,12.46c-5.6,4.26-13.19,5.15-20,5.15v2.21l.54,0h1.16l1,0h0v0c0,.06,0,.13,0,.19a.58.58,0,0,0,0,.13,1.36,1.36,0,0,0,0,.18c0,.07,0,.13,0,.19v0h0l-.53-.06-.53,0c0,.14,0,.28,0,.42v.9c0,.64,0,1.28,0,1.93,0,.37,0,.75.06,1.13v0h0l-.37,0H44l-.34,0h0v0c0-.36,0-.73.06-1.09s0-.94,0-1.41c0-.29,0-.57,0-.86s0-.69,0-1l-.53,0h-.06v6.5c-8.94,0-18.37-1.49-25.69-7.06A25.33,25.33,0,0,1,7.32,73.06L7.14,69c0-.35,0-.41.15-.43h.26l8.5-.73c.49,0,.42-.07.45.43.06,1.46.12,2.93.19,4.39a16,16,0,0,0,6.38,12.46c5.61,4.26,13.2,5.15,20,5.15v2.21l-.47,0h0v0a.71.71,0,0,0,0,.14c0,.06,0,.12,0,.19a3,3,0,0,1,0,.36v0h0l.47-.06v6.5ZM10.86,80.08c.36-.1.71-.22,1.05-.34s.87-.31,1.31-.48.82-.32,1.23-.49.73-.31,1.09-.48h0v0c0,.12.06.24.09.36l.07.21.07.16c.05.11.11.22.17.33v0h0l-1.07.36-1.31.49-.27.1-1.12.44c-.31.13-.63.27-.93.41h0v0c0-.11-.06-.23-.1-.34a2.19,2.19,0,0,0-.08-.23.48.48,0,0,0-.05-.13l-.16-.35v0Zm4.49,3.58c-.25.4-.51.8-.75,1.2s-.48.8-.69,1.2l0,0v0l-.19-.37a2,2,0,0,0-.12-.21,1.92,1.92,0,0,0-.13-.21l-.2-.28h0c.22-.28.43-.57.63-.87s.52-.83.76-1.25l-.75.45-.63.39-.53.37h0v0l-.14-.29a1.61,1.61,0,0,0-.11-.19,1.41,1.41,0,0,0-.12-.18l-.18-.26,0,0,0,0,.89-.47c.36-.19.72-.41,1.08-.62l.21-.13,1.21-.74.91-.62,0,0v0s0,0,0,0,.12.25.19.37a5.58,5.58,0,0,0,.32.48l.35.53A1.51,1.51,0,0,1,17.59,83a1.35,1.35,0,0,1-.69.8,1.47,1.47,0,0,1-.88.23,1,1,0,0,1-.68-.39ZM15,82.61h0a1,1,0,0,0,.55.5,1,1,0,0,0,.73-.18,1,1,0,0,0,.46-.5.85.85,0,0,0-.15-.61l0,0,0-.07-.3.16-.4.24-.84.5Zm4.25,3-.32.28-.43.41-.21.21c-.46.44-.93.89-1.37,1.35-.27.28-.53.54-.78.83l0,0v0c-.08-.1-.15-.2-.24-.29l-.13-.15-.16-.15a2.8,2.8,0,0,0-.26-.23v0h0l.82-.72c.35-.32.69-.64,1-1l.61-.6.72-.73c-.12-.12-.25-.25-.38-.36s-.28-.23-.42-.33l0,0,0,0,.27-.23.12-.14.09-.1h0l.67.76.4.44.4.39.75.73,0,0h0l-.15.13-.09.09-.13.13-.13.15,0,0,0,0L19.63,86l-.35-.4Zm1.31,4.58,2-1.67.32-.28a4.35,4.35,0,0,0,.33-.32v0l.18.14a.58.58,0,0,0,.1.07l.11.07.22.11,0,0,0,0-.57.39-.48.36-2.11,1.65c-.17.13-.33.26-.48.39s-.34.3-.5.46h0l-.15-.13-.11-.08-.11-.07-.19-.09h0v0c.14-.38.27-.78.38-1.16a.31.31,0,0,0,0-.07l1.12-3.84,0,0,.3.23.2.15.13.09.35.19h0v0c-.06.15-.12.31-.18.47s-.09.26-.13.39l-.75,2.49ZM26.65,90l-.32.38c-.1.13-.2.26-.29.4v0l-.1,0h0a1.3,1.3,0,0,0-.06-.68.75.75,0,0,0-.89-.4.62.62,0,0,0-.34.33c-.14.32.16.75.33,1l.13.18a2.66,2.66,0,0,1,.52,1,1.58,1.58,0,0,1-.15.82,1.66,1.66,0,0,1-.93.95,1.79,1.79,0,0,1-1.35-.11,2.43,2.43,0,0,1-.5-.3,2.22,2.22,0,0,1-.39-.37h0l.28-.44.38-.59h0l.13.05v0a1.34,1.34,0,0,0,0,.76.78.78,0,0,0,.44.44.72.72,0,0,0,.56,0,.64.64,0,0,0,.38-.39.6.6,0,0,0,0-.42,2.86,2.86,0,0,0-.4-.69,2.88,2.88,0,0,1-.55-1A1.44,1.44,0,0,1,23.7,90a1.46,1.46,0,0,1,2.09-.79,1.83,1.83,0,0,1,.5.3,1.59,1.59,0,0,1,.37.42h0ZM31,94.62l1.24-2.29a3.41,3.41,0,0,0,.19-.38c.06-.13.13-.28.19-.42v0h0l.21.07.11,0,.14,0,.23,0h0l0,0-.37.57c-.11.17-.21.34-.31.52l-1.34,2.32c-.11.17-.21.36-.3.53s-.2.41-.3.62l0,0h0l-.19-.07-.13,0-.14,0H30v0c0-.4,0-.81-.08-1.22a.28.28,0,0,0,0-.08l-.41-4h0l.37.1.24.06.16,0,.39,0h0v0c0,.16,0,.33,0,.5s0,.28,0,.41L31,94.62Zm6.13.77.14-1.32c0-.33.07-.68.1-1s0-.57,0-.86v0h0l.18,0,.13,0h.36v0c-.07.36-.13.72-.18,1.07-.09.67-.16,1.34-.24,2l0,.34c0,.3-.06.6-.08.89s0,.44,0,.65v0h0l-.22,0-.13,0h-.38c-.31-.6-.62-1.2-1-1.79s-.66-1.15-1-1.72l-.22,2c0,.19,0,.37,0,.56l-.06.74v0h0l-.18,0-.14,0h-.32v0c.07-.37.12-.74.17-1.12s.12-.91.16-1.37.07-.75.11-1.13.07-.91.1-1.37v0h0l.24,0,.14,0h.41c.3.6.62,1.2.94,1.79s.65,1.11,1,1.65Zm2.49,2c0-.37.07-.73.09-1.11s0-.93.06-1.4,0-.88,0-1.33,0-.79,0-1.19v0h0l.36.06.22,0h.17l.37,0h0v0c0,.37-.07.74-.09,1.11s0,.93-.06,1.4v.28c0,.4,0,.8,0,1.2s0,.68,0,1v0h0l-.36,0-.25,0H40l-.38,0h0v0Zm9.29-1.58h-.27l-.36,0-.26,0-.38,0c-.08.46-.17.92-.25,1.38v.06h-.31l-.16,0-.18,0h0v0c.24-.88.46-1.76.67-2.64s.38-1.74.56-2.6v0h.32l.24,0h.08c.32.85.66,1.69,1,2.53s.68,1.62,1,2.42v0h0l-.34,0-.25,0-.28,0-.32,0h0v0l-.23-.65-.24-.7Zm-1.13-.55h0l.41,0,.46-.06h0c-.09-.24-.18-.48-.28-.71s-.2-.48-.32-.71c-.05.25-.12.51-.18.77s-.11.49-.15.74Zm7.11-3.45c0,.15,0,.29.07.43s.08.41.13.61l.08.36.53-.14.71-.19h0v0a.43.43,0,0,0,0,.11,1.06,1.06,0,0,0,0,.22.81.81,0,0,0,.05.19,1.41,1.41,0,0,0,0,.15v0h0l-.69.1-.59.11.28,1.32c0,.18.08.35.12.52l.14.46v0h0l-.33.05-.24,0-.24.05-.3.09h0v0c0-.28-.07-.55-.12-.83s-.14-.75-.22-1.13l-.17-.8c-.09-.42-.19-.85-.3-1.26s-.15-.59-.25-.87v0h0l.82-.15.35-.07.49-.11.74-.19h0v0a.93.93,0,0,1,0,.18l0,.14a.48.48,0,0,0,0,.13,1.56,1.56,0,0,0,0,.18v0h0l-.47.06-.47.09-.24.05-.11,0Zm2.92,1.25A2.93,2.93,0,0,1,57.71,91a2.27,2.27,0,0,1,1.39-1.3,2.21,2.21,0,0,1,1.81,0,2.74,2.74,0,0,1,1.22,1.52,3,3,0,0,1,.13,2.1,2.51,2.51,0,0,1-3.2,1.3,2.77,2.77,0,0,1-1.23-1.55Zm1-.46A3.15,3.15,0,0,0,59.72,94a1,1,0,0,0,1.64-.63,3.19,3.19,0,0,0-.25-1.56,3.27,3.27,0,0,0-.86-1.34,1,1,0,0,0-1-.2,1,1,0,0,0-.62.84,3.17,3.17,0,0,0,.26,1.57Zm6.28-3.14c.4.25.81.5,1.21.73s.81.46,1.22.67l0,0h0l-.37.19-.21.13a1.61,1.61,0,0,0-.2.14l-.28.2h0a9.39,9.39,0,0,0-.88-.6c-.41-.27-.83-.51-1.26-.75l.47.75.4.62.37.53,0,0h0l-.29.15-.17.11-.18.11a2.08,2.08,0,0,0-.26.19l0,0v0c-.15-.29-.32-.59-.48-.88s-.42-.71-.65-1.06l-.13-.22c-.25-.4-.5-.8-.76-1.19s-.42-.6-.64-.9v0h0l0,0,.36-.2c.17-.1.33-.22.48-.32s.35-.25.53-.36a1.43,1.43,0,0,1,1.05-.28,1.34,1.34,0,0,1,.81.68,1.4,1.4,0,0,1,.25.87,1,1,0,0,1-.37.68Zm-1,.34h0a1,1,0,0,0,.48-.57,1,1,0,0,0-.19-.73,1,1,0,0,0-.5-.45.85.85,0,0,0-.62.15l0,0-.07,0,.17.3c.08.13.16.28.25.4l.52.84Zm3-4.44.28.31c.13.15.27.29.41.43l.21.22c.44.46.89.93,1.35,1.37.27.27.55.53.83.79h0v0c-.1.09-.21.16-.3.25l-.14.13a1.65,1.65,0,0,0-.16.16l-.23.26,0,0,0,0c-.23-.28-.46-.54-.71-.82s-.64-.69-1-1l-.6-.61-.72-.73c-.13.12-.25.25-.37.38s-.23.28-.34.42v0l0,0a3.05,3.05,0,0,0-.24-.27l-.13-.12-.11-.1,0,0h0l.76-.67.43-.41.4-.4.73-.76v0c.05,0,.09.1.13.14l.08.09.13.13.14.13,0,0h0l-.43.33c-.14.11-.27.23-.4.35Zm.83-2,.25-.27a1.49,1.49,0,0,0,.13-.18l.09-.14.18-.32v0l.88.7,1.12.83.23.17,1,.69c.29.19.57.38.86.56l0,0v0l-.24.28-.15.19-.08.13-.2.32v0h0c-.28-.24-.57-.47-.87-.71s-.74-.55-1.12-.83-.71-.52-1.09-.77-.66-.44-1-.65h0l0,0Zm3.57-.51a3,3,0,0,1-1.58-1.36,2.28,2.28,0,0,1,0-1.9,2.16,2.16,0,0,1,1.26-1.29,2.65,2.65,0,0,1,1.94.18,3,3,0,0,1,1.61,1.36,2.22,2.22,0,0,1,0,1.9,2.16,2.16,0,0,1-1.27,1.3,2.84,2.84,0,0,1-2-.19Zm.39-1.07a3.22,3.22,0,0,0,1.55.3,1,1,0,0,0,.85-.6,1,1,0,0,0-.17-1,3.8,3.8,0,0,0-2.85-1.22,1,1,0,0,0-.85.59,1,1,0,0,0,.17,1,3.16,3.16,0,0,0,1.3.91Zm2-6.66c.45-.12.91-.24,1.36-.38s.89-.28,1.32-.44h0v0a4,4,0,0,0-.1.41,1,1,0,0,0-.06.23c0,.08,0,.17,0,.26s0,.22,0,.33v0h0a9.77,9.77,0,0,0-1,.23c-.48.13-.94.27-1.41.42l.87.16.73.12.66.1h0v0c0,.1-.06.2-.09.31a1.61,1.61,0,0,0,0,.21c0,.07,0,.14,0,.21s0,.21,0,.32v0h0c-.32-.1-.65-.18-1-.26l-1.21-.25-.25,0c-.46-.09-.93-.18-1.39-.25s-.73-.11-1.09-.15h0v-.08c0-.13.08-.27.1-.39s.07-.39.09-.57.05-.42.09-.63a1.48,1.48,0,0,1,.52-1,1.37,1.37,0,0,1,1-.14,1.42,1.42,0,0,1,.8.42,1,1,0,0,1,.25.73Zm-.47,1h0a1,1,0,0,0-.08-.74,1,1,0,0,0-.67-.35.9.9,0,0,0-.66.05.82.82,0,0,0-.32.55s0,0,0,.05,0,.05,0,.07l.34.09.46.09,1,.18ZM23.12,97l.27.12L23.12,97Zm.28.12.32.14-.32-.14Zm.32.14.14,4.77.17.08.06-.11a2.87,2.87,0,0,1,.39-.55l-.09-3.91-.67-.27Zm.77.31.27.1-.27-.1Zm.37.14.13,0L25,101a3,3,0,0,1,.89-.36l0-2.57-1-.37Zm1.13.4.22.07L26,98.15Zm.27.09.19.07v2.38h0a3.06,3.06,0,0,1,.9.37h0l0-2.47-1.1-.34Zm1.16.36.25.07-.25-.07Zm.32.1.12,0-.07,2.7h0a3,3,0,0,1,.46.62l.06.11.07,0,.1-3.21.3.08-1-.28Zm1.06.29.31.07L28.78,99Zm27.8.19,1-.25.09,3.13.17.08.06-.11a2.55,2.55,0,0,1,.38-.55l-.07-2.72.58-.16,0,2.45a2.87,2.87,0,0,1,.89-.36l0-2.37.51-.17c-1.18.4-2.38.74-3.6,1Zm3.63-1v2.56a2.89,2.89,0,0,1,.88.36l0-3.24.18-.07-1.09.39Zm1.12-.4.25-.09-.25.09Zm.31-.11-.09,3.81A2.58,2.58,0,0,1,62,102l.07.11.08,0,.14-4.75,0,0-.68.28Zm.76-.3.27-.11-.27.11Zm.4-.17L63,97l-.23.1Zm-22.74,3.41.66,0,.09,3.07v.18a.43.43,0,0,1,.12.05l.07-.12a3.17,3.17,0,0,1,.43-.59l-.06-2.58h.56l0,2.16a3,3,0,0,1,.88-.33v-1.81H42.1c-.68,0-1.37,0-2-.05Zm3.28.05v1.81a3,3,0,0,1,.88.36l0-2.18h.48l-.06,2.52a3.12,3.12,0,0,1,.49.65l.07.12,0,0c0-.07,0-.15,0-.22l.09-3.07-1.28,0h-.7Zm2,0h0ZM79.45,73.2h0v0h0v0h0v0l.17-4h0v0h0l0,0h0l0,0v0a.18.18,0,0,1,0,.06v0l0,.05h0v0h0l0,.06h0v0h0v0h0l0,0h0v0h0v0h0l0,.06v0a5.44,5.44,0,0,1,.2.6h0c.05.21.11.43.15.66h0l0,.11h0c0,.27.09.54.12.81h0v0h0v0h0c.05.44.08.87.12,1.27h0v0h0v0h0v.1h0v0h0v0h0v0h0c0,.45,0,.83.05,1.1a17.36,17.36,0,0,0,.36,3.11,3.63,3.63,0,0,0,.77,1.65l-3.53.31a27.66,27.66,0,0,0,1.12-6.7Zm-6.13-5.72c-1.15-4.29-1.87-8.24.14-13.12.32-.59.28-.27.29.14.13,4.46,2,6.31,3.16,9.77C77.69,62.05,80,60,81.7,58.7c.72-.54.57-.53.29.2-3.27,8.49,5.75,20.62,1,20.59h0c-1.24,0-1.55-2.21-1.68-4.69-.08-1.55-.08-5.46-1.69-6.61a2.14,2.14,0,0,0-1-.25L78,67.88l-4.49-.38h-.21ZM6.7,73.2h0v0h0v0h0v0l-.18-4h0v0h0l0,0h0l0,0v0l0,.06v0s0,0,0,.05h0v0h0a.13.13,0,0,0,0,.06h0v0h0v0h0l0,0h0l0,0h0v0h0l0,.06v0c-.07.18-.14.38-.2.6h0c-.06.21-.12.43-.17.66h0v.11h0c-.05.27-.1.54-.13.81h0v0h0v0h0c-.05.44-.09.87-.12,1.27h0v0h0v0h0v.1h0v0h0v0h0v0h0c0,.45,0,.83-.05,1.1a17.61,17.61,0,0,1-.36,3.11,3.74,3.74,0,0,1-.77,1.65l3.53.31A27.7,27.7,0,0,1,6.7,73.2Zm6.13-5.72c1.15-4.29,1.87-8.24-.14-13.12-.32-.59-.28-.27-.29.14-.13,4.46-2,6.31-3.16,9.77C8.45,62.05,6.13,60,4.44,58.7c-.72-.54-.57-.53-.29.2,3.28,8.49-5.75,20.62-1,20.59h0c1.24,0,1.55-2.21,1.68-4.69.08-1.55.08-5.46,1.69-6.61a2.18,2.18,0,0,1,1-.25l.64-.05,4.48-.38h.21ZM46.88,20.55l-.19-.25c-.36-.49-6.87-.51-7.29-.06l-.25.33a35.72,35.72,0,0,1,3.92-.22,36.82,36.82,0,0,1,3.81.21Zm-9.51.78a34.57,34.57,0,0,1,11.4,0,1.86,1.86,0,0,1,0,3.52,32.87,32.87,0,0,0-5.7-.41,32.7,32.7,0,0,0-5.7.41,1.86,1.86,0,0,1,0-3.52Zm.84,4.58a43.77,43.77,0,0,1,9.65,0c.54.06.49-.22.5-.61a33,33,0,0,0-5.29-.35,33.12,33.12,0,0,0-5.38.36c0,.4,0,.66.52.6Zm.48,78.51c2.33-.05,1.83.17,3.21,1.59l.34-.24a4.86,4.86,0,0,1-.52-1.6,1.85,1.85,0,0,1,1.36-1,1.86,1.86,0,0,1,1.36,1,5,5,0,0,1-.52,1.6l.34.24c1.38-1.42.88-1.64,3.21-1.59,0,1.09-1.2.81-1.73,1.67-.37.59.05,1.41-.36,1.76A.79.79,0,0,1,45,108a2,2,0,0,0-3.83,0,.81.81,0,0,1-.37-.16c-.42-.35,0-1.18-.36-1.76-.54-.86-1.7-.59-1.74-1.67Zm4.38,2.67a1.13,1.13,0,1,1-1.37,1.11,1.26,1.26,0,0,1,1.37-1.11ZM63.75,20.55l-.2-.25c-.36-.49-6.86-.51-7.28-.06l-.25.33a35.94,35.94,0,0,1,3.92-.22,36.71,36.71,0,0,1,3.81.21Zm-9.5.78a34.54,34.54,0,0,1,11.39,0,1.86,1.86,0,0,1,0,3.52,32.74,32.74,0,0,0-5.7-.41,32.68,32.68,0,0,0-5.7.41,1.86,1.86,0,0,1,0-3.52Zm.84,4.58a43.76,43.76,0,0,1,9.65,0c.54.06.48-.22.5-.61a33,33,0,0,0-5.29-.35,33.29,33.29,0,0,0-5.39.36c0,.4,0,.66.53.6Zm.47,76.78c2.33-.05,1.83.16,3.22,1.58l.33-.22a5.2,5.2,0,0,1-.52-1.62,1.44,1.44,0,0,1,2.72,0,4.8,4.8,0,0,1-.52,1.62l.33.22c1.39-1.41.89-1.63,3.22-1.58,0,1.08-1.2.8-1.74,1.65-.37.6.05,1.43-.36,1.78a.82.82,0,0,1-.37.16,2,2,0,0,0-3.83,0,.82.82,0,0,1-.37-.16c-.42-.35,0-1.18-.36-1.78-.55-.85-1.7-.57-1.74-1.65Zm4.39,2.66a1.14,1.14,0,1,1-1.38,1.11,1.26,1.26,0,0,1,1.38-1.11Zm-38.16-2.66c2.33-.05,1.82.16,3.21,1.58l.34-.22a4.8,4.8,0,0,1-.52-1.62,1.84,1.84,0,0,1,1.35-1,1.84,1.84,0,0,1,1.35,1A5,5,0,0,1,27,104l.33.22c1.39-1.41.88-1.63,3.21-1.58,0,1.08-1.2.8-1.74,1.65-.36.6.06,1.43-.36,1.78a.82.82,0,0,1-.37.16,2,2,0,0,0-3.83,0,.87.87,0,0,1-.37-.16c-.42-.35,0-1.18-.36-1.78-.54-.85-1.69-.57-1.74-1.65Zm4.38,2.66a1.14,1.14,0,1,1-1.37,1.11,1.26,1.26,0,0,1,1.37-1.11ZM30,20.55l-.19-.25c-.36-.49-6.86-.51-7.29-.06l-.25.33a35.83,35.83,0,0,1,3.92-.22,36.61,36.61,0,0,1,3.81.21Zm-9.5.78a34.55,34.55,0,0,1,11.4,0,1.86,1.86,0,0,1,0,3.52,32.79,32.79,0,0,0-5.7-.41,32.72,32.72,0,0,0-5.7.41,1.86,1.86,0,0,1,0-3.52Zm.83,4.58a43.77,43.77,0,0,1,9.65,0c.54.06.48-.22.5-.61a32.93,32.93,0,0,0-5.29-.35,33.15,33.15,0,0,0-5.38.36c0,.4,0,.66.52.6Z"/><path class="cls-2" d="M49.94,75.69h-.15c-.41,0-.82,0-1.23-.08a5.3,5.3,0,0,1-1-.19l-.08,0a.36.36,0,0,1-.27-.36.37.37,0,0,1,.31-.33h.08a10.24,10.24,0,0,1,1-.12l1.31-.12-.56-.13c-.44-.09-.9-.2-1.34-.34a6.4,6.4,0,0,1-1.11-.4l0,0a.34.34,0,0,1-.22-.39.34.34,0,0,1,.36-.28H47c.36,0,.74,0,1.1.09l1.12.1h0c-.47-.17-.93-.34-1.38-.53A8.65,8.65,0,0,1,46.75,72c-.15-.1-.32-.2-.24-.45a.35.35,0,0,1,.38-.24H47c.4.06.78.15,1.17.25l1,.25c-.4-.2-.79-.42-1.17-.63a11.63,11.63,0,0,1-1.08-.68c-.15-.11-.31-.26-.18-.5a.36.36,0,0,1,.17-.16.46.46,0,0,1,.32,0c.41.11.81.26,1.2.4l1,.37-1-.73c-.35-.27-.71-.55-1-.85-.14-.13-.27-.3-.12-.52a.35.35,0,0,1,.4-.13l.05,0,.07,0A12.34,12.34,0,0,1,49,69l.87.47c-.28-.26-.55-.52-.81-.78a10.7,10.7,0,0,1-.93-1c-.11-.14-.22-.32,0-.5a.31.31,0,0,1,.32-.11l.08,0,.06,0,.06,0a12.57,12.57,0,0,1,1.15.76c.36.26.7.53,1,.81-.26-.34-.52-.68-.77-1a11.88,11.88,0,0,1-.79-1.2l0-.09A.35.35,0,0,1,49.7,66l.08.06a11.82,11.82,0,0,1,1.06.95c.29.29.58.58.86.88-.2-.36-.4-.72-.59-1.1a9.59,9.59,0,0,1-.57-1.22.37.37,0,0,1,0-.09.3.3,0,0,1,0-.06.25.25,0,0,1,0-.09.34.34,0,0,1,.16-.3c.24-.14.39,0,.52.15A12.25,12.25,0,0,1,52,66.24c.21.29.42.59.63.89-.12-.31-.23-.62-.34-.94a12,12,0,0,1-.39-1.27.94.94,0,0,0,0-.1.59.59,0,0,1,0-.07.34.34,0,0,1,.23-.33c.28-.1.37.09.48.25a11.25,11.25,0,0,1,.68,1.14c.19.35.37.7.56,1.06-.09-.34-.16-.67-.22-1a10.94,10.94,0,0,1-.21-1.26s0-.06,0-.09a.18.18,0,0,1,0-.06.36.36,0,0,1,.25-.33c.27-.08.37.1.45.28a9.85,9.85,0,0,1,.51,1.18c.16.41.3.82.44,1.23,0-.35-.06-.7-.09-1.06s-.05-.79-.06-1.18V64.5a.34.34,0,0,1,.3-.35c.26,0,.34.13.41.31A8.33,8.33,0,0,1,56,65.63c.12.48.22,1,.31,1.43h0L56.34,66c0-.36.05-.73.09-1.1,0,0,0-.05,0-.07a.34.34,0,0,1,.32-.32.34.34,0,0,1,.36.27.19.19,0,0,1,0,.07A8.17,8.17,0,0,1,57.36,66c.06.45.09.9.12,1.35,0,.19,0,.37,0,.56.11-.41.21-.83.32-1.25s.17-.67.28-1a.52.52,0,0,0,0-.08.36.36,0,0,1,.38-.24.37.37,0,0,1,.3.33.33.33,0,0,0,0,.07,6.81,6.81,0,0,1,0,1.07c0,.41-.06.81-.11,1.23a1,1,0,0,0,0,.14l.34-.73a7.57,7.57,0,0,1,.39-.77.37.37,0,0,1,.46-.23.36.36,0,0,1,.24.36v.07A3.66,3.66,0,0,1,60,67.91c-.09.42-.21.83-.33,1.24,0,0,0,0,0,.07.14-.19.29-.38.44-.57a6.65,6.65,0,0,1,.49-.56.37.37,0,0,1,.45-.13.38.38,0,0,1,.21.36.58.58,0,0,0,0,.07,5.87,5.87,0,0,1-.68,1.84l-.3.53.66-.53a5.44,5.44,0,0,1,.48-.37.38.38,0,0,1,.45,0,.37.37,0,0,1,.15.33.33.33,0,0,0,0,.07,4.69,4.69,0,0,1-1.23,1.87l.94-.36h.1a.37.37,0,0,1,.36.15.35.35,0,0,1-.05.45,5,5,0,0,1-4.55,2.05,1.48,1.48,0,0,0-.4,0L60.36,78a.4.4,0,0,1,.13.42.36.36,0,0,1-.27.23.38.38,0,0,0-.19.17.36.36,0,0,1-.33.22c-.18,0-.25-.09-.35-.21l-3-3.68a2.36,2.36,0,0,0-.11.4,5.36,5.36,0,0,1-2.71,4.17.39.39,0,0,1-.48,0,.4.4,0,0,1-.08-.4s0,0,0-.06v0l.47-.84a4.61,4.61,0,0,1-2,.91h-.06a.37.37,0,0,1-.32-.21.38.38,0,0,1,.09-.43c.13-.14.3-.29.44-.42s.41-.38.62-.57l-.57.21a5.84,5.84,0,0,1-1.92.4h-.07a.35.35,0,0,1-.33-.24.37.37,0,0,1,.19-.44,6.9,6.9,0,0,1,.63-.4l.65-.35h-.09c-.43.06-.86.12-1.29.14a4.15,4.15,0,0,1-1.07,0l-.09,0a.37.37,0,0,1-.28-.33.36.36,0,0,1,.25-.35l.07,0c.27-.1.54-.19.82-.27l.76-.22Zm6-.23a5,5,0,0,1-2.53,3.91c-.1.06-.08,0,0-.06l1.08-2s0,0-.08,0c-.73.5-2.26,1.61-2.86,1.58-.1,0-.11,0,0-.07a19.85,19.85,0,0,0,1.9-1.88c0-.07-.05-.1-.14-.07a11.84,11.84,0,0,1-3.42,1c-.11,0-.12,0,0-.07.48-.35,2-1.13,2.73-1.56,0,0,0-.07-.07-.07h0a15.1,15.1,0,0,1-4,.38c-.13,0-.12,0,0-.06.69-.26,2.56-.75,3.47-1,0,0,0-.06,0-.09a21.09,21.09,0,0,1-4.31-.27c-.13,0-.13,0,0-.05.57-.1,2-.2,3.24-.34.3,0,.57-.07.82-.12.07,0,.1-.08,0-.12A26.08,26.08,0,0,1,47,73.29c-.08,0-.12,0,0,0,1,.05,3.32.32,4.58.39.06,0,.1-.05,0-.1a32.37,32.37,0,0,1-4.68-1.81c-.08,0-.13-.06,0,0,1.11.19,3.51.85,4.81,1.17.08,0,.08,0,0-.08a47.94,47.94,0,0,1-4.63-2.52L47,70.2l.11,0A42.36,42.36,0,0,1,52,72.15c.05,0,.06,0,0-.05-1.22-.89-3.45-2.39-4.38-3.27-.11-.11-.08-.07,0,0a35.1,35.1,0,0,1,4.65,2.63c.07.05.09,0,0-.06a55.09,55.09,0,0,1-4-3.86c-.07-.09-.07-.09,0,0a43.68,43.68,0,0,1,4.42,3.4s.06,0,.06-.06a39.74,39.74,0,0,1-3.37-4.46c-.09-.15-.09-.14,0,0a39.57,39.57,0,0,1,3.91,4s0,0,0,0a43.81,43.81,0,0,1-2.66-4.86c-.05-.15-.07-.15,0,0,.87,1,2.35,3.27,3.23,4.53,0,0,0,0,0,0a36.18,36.18,0,0,1-1.91-5.06c0-.19,0-.1.06,0,.71,1,1.84,3.45,2.53,4.79,0,0,.05,0,.07,0a45.62,45.62,0,0,1-1.19-5.06c0-.15,0-.13.05,0a48.41,48.41,0,0,1,1.78,4.94s.06,0,.09,0c-.13-1.34-.4-3.8-.43-4.92,0-.13,0-.1,0,0a34.25,34.25,0,0,1,1.08,4.9c0,.05.06.05.1,0,.13-1.26.22-3.57.31-4.56,0-.14,0-.11,0,0a25.73,25.73,0,0,1,.45,4.73c0,.06.06.07.11,0,.4-1.19.85-3.25,1.08-3.94,0-.13,0-.1.05,0a21.26,21.26,0,0,1-.39,4.3c0,.06,0,.08.08.06.44-.85,1.2-2.63,1.57-3.29.07-.13.05-.07.06,0a14.87,14.87,0,0,1-1,3.83s0,.08.06.08c.54-.61,1.55-2,2-2.45.07-.08.07-.09.07,0a11.87,11.87,0,0,1-1.53,3.24c0,.09,0,.13.05.14a20.44,20.44,0,0,0,2.15-1.58c.08-.05.07,0,.06.05-.06.58-1.36,1.89-2,2.56-.05.07-.05.11,0,.12l2.13-.8c.1,0,.09,0,0,.06a4.71,4.71,0,0,1-4.25,1.9h0a6.29,6.29,0,0,0,1.74-.8c.1-.09,0-.22-.11-.13a6.38,6.38,0,0,1-1.73.78,6.21,6.21,0,0,0,1.62-1.65c.07-.12-.08-.2-.15-.09a6.49,6.49,0,0,1-1.72,1.72,7.64,7.64,0,0,0,1.41-2.4c0-.13-.12-.19-.16-.06a7.57,7.57,0,0,1-1.4,2.37,9.77,9.77,0,0,0,1-2.86c0-.14-.14-.16-.17,0a9.53,9.53,0,0,1-1,2.82,10.12,10.12,0,0,0,.44-3.15c0-.14-.18-.14-.17,0a9.65,9.65,0,0,1-.41,3,10.7,10.7,0,0,0-.18-3.17.09.09,0,1,0-.17,0,10.16,10.16,0,0,1,.18,3.06,11.9,11.9,0,0,0-.66-3.11c0-.13-.2-.07-.15.05a12.35,12.35,0,0,1,.64,3.06,17,17,0,0,0-1.09-3c-.06-.11-.21,0-.15.08a16.2,16.2,0,0,1,1.08,3,21.25,21.25,0,0,0-1.54-2.87c-.07-.12-.22,0-.14.1a20.55,20.55,0,0,1,1.52,2.84c-.62-.9-1.28-1.77-1.94-2.63-.09-.1-.23,0-.14.1.68.88,1.31,1.73,1.94,2.64-.81-.77-1.54-1.51-2.3-2.33-.1-.1-.22,0-.13.12.75.79,1.51,1.58,2.3,2.32A20.58,20.58,0,0,1,53.24,72a.09.09,0,1,0-.12.13,21.86,21.86,0,0,0,2.6,2,16.56,16.56,0,0,1-2.83-1.54c-.11-.07-.21.07-.1.15a17.48,17.48,0,0,0,2.84,1.54,12.38,12.38,0,0,1-2.93-1.11c-.12-.06-.2.09-.08.15a12.19,12.19,0,0,0,3,1.12,10.83,10.83,0,0,1-3-.65c-.13-.06-.19.11-.05.16a10.7,10.7,0,0,0,3.1.66,9.9,9.9,0,0,1-3.07-.06c-.14,0-.17.14,0,.17a9.57,9.57,0,0,0,3.18,0,9.28,9.28,0,0,1-2.94.52c-.14,0-.13.17,0,.17a9.49,9.49,0,0,0,3-.52,7.38,7.38,0,0,1-2.56,1c-.13,0-.11.2,0,.17a7.41,7.41,0,0,0,2.6-1,6.62,6.62,0,0,1-2,1.44c-.13,0-.07.21.06.16a6.21,6.21,0,0,0,1.88-1.35,6.49,6.49,0,0,1-1,1.59c-.1.09,0,.22.12.13a6.25,6.25,0,0,0,1.05-1.6.1.1,0,0,0,0,0Zm.55-.77,3.13,3.87c.08.09.08.12.12,0a.68.68,0,0,1,.37-.33c.08,0,.08,0,0-.1l-3.36-3.69c-.16-.17-.4,0-.26.2ZM37.59,61.29h-.15c-.41,0-.82,0-1.22-.07A5.89,5.89,0,0,1,35.16,61l-.07,0a.36.36,0,0,1-.27-.37.35.35,0,0,1,.31-.32h.08c.33-.06.69-.08,1-.12l1.3-.12L37,59.94c-.45-.1-.89-.21-1.33-.34a6.48,6.48,0,0,1-1.11-.4l-.05,0a.35.35,0,0,1-.22-.4.36.36,0,0,1,.36-.27h.07c.36,0,.74.05,1.1.09l1.12.1h0c-.46-.16-.92-.33-1.37-.52a9.75,9.75,0,0,1-1.12-.54c-.15-.1-.31-.19-.23-.44a.35.35,0,0,1,.39-.25h.08c.39.07.78.15,1.16.25l1,.25c-.39-.21-.78-.41-1.16-.63a12.72,12.72,0,0,1-1.09-.68c-.15-.11-.3-.26-.18-.5a.39.39,0,0,1,.18-.17.48.48,0,0,1,.32,0,10.39,10.39,0,0,1,1.2.4c.33.11.65.25,1,.38l-1-.74c-.35-.27-.71-.55-1-.85-.15-.13-.27-.3-.12-.52a.36.36,0,0,1,.4-.13l.05,0,.06,0a12.37,12.37,0,0,1,1.21.57l.87.48c-.27-.26-.54-.51-.8-.78a12.48,12.48,0,0,1-.93-1c-.12-.15-.21-.32,0-.52A.36.36,0,0,1,36,52.7l.08,0,0,0,.07,0a11.83,11.83,0,0,1,1.15.76l1,.8c-.27-.33-.53-.68-.77-1a12.07,12.07,0,0,1-.79-1.2.37.37,0,0,1,0-.09.34.34,0,0,1,.07-.45.35.35,0,0,1,.46,0l.08.06a12.54,12.54,0,0,1,1.06,1l.87.88c-.2-.36-.41-.73-.6-1.1a10.14,10.14,0,0,1-.57-1.23l0-.08a.14.14,0,0,1,0-.06.14.14,0,0,1,0-.08.37.37,0,0,1,.16-.3c.23-.15.38,0,.52.14a11.87,11.87,0,0,1,.85,1.07c.21.29.42.6.63.89-.12-.31-.23-.62-.34-.93s-.28-.84-.37-1.27c0,0,0-.07,0-.11a.22.22,0,0,1,0-.07.36.36,0,0,1,.23-.34c.28-.1.38.09.49.26a10.19,10.19,0,0,1,.68,1.14c.19.35.38.7.56,1q-.12-.5-.23-1c-.09-.41-.16-.84-.21-1.26,0,0,0-.06,0-.09v-.06a.33.33,0,0,1,.25-.33c.26-.07.37.1.45.28a9.67,9.67,0,0,1,.51,1.18c.15.41.3.82.44,1.23,0-.34-.06-.7-.09-1s-.06-.79-.07-1.18v-.08a.36.36,0,0,1,.3-.35c.27,0,.34.13.41.3a11.32,11.32,0,0,1,.36,1.19c.12.48.22,1,.31,1.44h0c0-.37,0-.73.07-1.1s0-.73.09-1.1c0,0,0-.05,0-.07a.35.35,0,0,1,.69-.05l0,.07A7,7,0,0,1,45,51.57c.06.45.1.9.13,1.35,0,.18,0,.36,0,.55.11-.41.2-.83.32-1.24s.17-.67.28-1a.64.64,0,0,0,0-.08.37.37,0,0,1,.38-.24.38.38,0,0,1,.3.33s0,0,0,.06a5.79,5.79,0,0,1,0,1.07c0,.41-.06.82-.12,1.23,0,.05,0,.1,0,.15l.34-.73c.13-.26.25-.52.39-.77a.36.36,0,0,1,.7.13s0,0,0,.07a3.64,3.64,0,0,1-.13,1.06c-.08.42-.21.83-.33,1.25l0,.07.44-.57c.16-.19.32-.39.49-.56a.38.38,0,0,1,.45-.13.36.36,0,0,1,.2.36s0,0,0,.07a6,6,0,0,1-.69,1.84l-.3.53.65-.52a5.93,5.93,0,0,1,.48-.37.37.37,0,0,1,.44,0,.35.35,0,0,1,.15.33s0,0,0,.06a4.79,4.79,0,0,1-1.24,1.88l.93-.36h.1a.36.36,0,0,1,.32.61,5.06,5.06,0,0,1-4.55,2,2.08,2.08,0,0,0-.4,0L48,63.55a.4.4,0,0,1,.13.41.37.37,0,0,1-.27.24.35.35,0,0,0-.2.17.36.36,0,0,1-.32.22c-.18,0-.26-.09-.36-.21l-3-3.67a1.66,1.66,0,0,0-.1.4,5.36,5.36,0,0,1-2.7,4.16.37.37,0,0,1-.47,0,.38.38,0,0,1-.09-.4l0-.06v0l.47-.84a4.62,4.62,0,0,1-2,.9h-.06a.37.37,0,0,1-.32-.2.39.39,0,0,1,.09-.43c.13-.15.31-.29.45-.42l.62-.56-.57.2a5.94,5.94,0,0,1-1.92.4h-.07a.34.34,0,0,1-.32-.24c-.07-.21,0-.33.19-.44a5.63,5.63,0,0,1,.63-.4l.64-.35h-.1c-.42.06-.86.11-1.28.14a4.09,4.09,0,0,1-1.08,0l-.08,0a.37.37,0,0,1-.29-.33.37.37,0,0,1,.25-.36l.08,0c.27-.1.54-.18.83-.26l.75-.22Zm6-.23A5,5,0,0,1,41.06,65c-.1.05-.08,0,0-.06l1.1-2s0,0-.09,0c-.73.5-2.25,1.61-2.84,1.57-.11,0-.12,0-.05-.07A19.68,19.68,0,0,0,41,62.54c0-.07,0-.1-.12-.07a12,12,0,0,1-3.44,1c-.11,0-.11,0,0-.06.48-.35,2-1.13,2.72-1.57,0,0,0-.06-.07-.07h0a14.8,14.8,0,0,1-3.94.39c-.14,0-.13,0,0-.07.69-.26,2.56-.74,3.47-1,0,0,0-.06,0-.08a21.33,21.33,0,0,1-4.32-.28c-.13,0-.13,0,0-.05.57-.1,2-.19,3.24-.33l.82-.11c.07,0,.11-.08,0-.12a26.38,26.38,0,0,1-4.62-1.18c-.08,0-.12-.05,0,0,1,0,3.32.32,4.59.38.05,0,.1-.05,0-.1a31.42,31.42,0,0,1-4.68-1.81c-.08,0-.13-.06,0,0,1.11.19,3.51.85,4.81,1.17.07,0,.08,0,0-.08a49.1,49.1,0,0,1-4.62-2.52l-.08-.06.11,0a42.52,42.52,0,0,1,4.82,1.93c.06,0,.07,0,0-.06-1.21-.89-3.44-2.39-4.38-3.26-.11-.1-.07-.07,0,0A36.47,36.47,0,0,1,40,57c.06,0,.09,0,0-.05-1.12-1.06-3.16-2.85-4-3.85-.07-.09-.07-.09,0,0a42.8,42.8,0,0,1,4.41,3.4s.07,0,.06-.07A40.84,40.84,0,0,1,37.18,52c-.08-.15-.09-.15,0,0a40.38,40.38,0,0,1,3.9,4s0,0,0,0A44.59,44.59,0,0,1,38.52,51c-.05-.15-.07-.15,0,0,.87,1,2.34,3.27,3.22,4.54,0,0,.05,0,.05,0a35,35,0,0,1-1.92-5.05c0-.19,0-.1.06,0,.71,1,1.84,3.44,2.54,4.77,0,0,0,0,.06,0a42.62,42.62,0,0,1-1.17-5.06c0-.15,0-.13,0,0a47,47,0,0,1,1.78,4.94s.07,0,.09,0c-.11-1.33-.4-3.8-.42-4.91,0-.14,0-.09,0,0A32.37,32.37,0,0,1,44,55.08s.06.05.09,0c.13-1.25.22-3.56.32-4.56,0-.13,0-.11,0,0a25.45,25.45,0,0,1,.46,4.73c0,.06.05.07.1,0,.4-1.2.85-3.25,1.09-3.95,0-.13,0-.1,0,0a20.8,20.8,0,0,1-.38,4.3c0,.05,0,.07.07.05.44-.86,1.2-2.63,1.58-3.29.07-.13,0-.07.05,0a15,15,0,0,1-1,3.82s0,.09.07.09c.53-.61,1.54-2,2-2.45.08-.08.07-.09.06,0A11.8,11.8,0,0,1,47,57.2c0,.08,0,.13,0,.13a20.55,20.55,0,0,0,2.15-1.58c.09-.05.07,0,.07.05-.06.59-1.35,1.89-2,2.56-.05.07-.05.11,0,.12l2.13-.8c.1,0,.1,0,0,.06a4.68,4.68,0,0,1-4.25,1.9h0a6.07,6.07,0,0,0,1.73-.8c.11-.09,0-.22-.1-.13a6.43,6.43,0,0,1-1.73.79,6.14,6.14,0,0,0,1.62-1.66c.06-.11-.08-.2-.15-.08a6.42,6.42,0,0,1-1.71,1.71,7.54,7.54,0,0,0,1.41-2.4c0-.13-.13-.18-.17-.05A7.26,7.26,0,0,1,44.7,59.4a9.55,9.55,0,0,0,1-2.86c0-.13-.15-.16-.17,0a9.85,9.85,0,0,1-1,2.83A10.05,10.05,0,0,0,45,56.17c0-.14-.17-.13-.17,0a9.74,9.74,0,0,1-.4,3A10.51,10.51,0,0,0,44.22,56c0-.13-.2-.1-.16,0a10.5,10.5,0,0,1,.18,3.06A12.13,12.13,0,0,0,43.57,56a.09.09,0,1,0-.16.05,12.22,12.22,0,0,1,.65,3.06,17.28,17.28,0,0,0-1.09-3c-.06-.12-.22,0-.16.08a16.36,16.36,0,0,1,1.08,3,22,22,0,0,0-1.54-2.87.09.09,0,1,0-.15.1,21,21,0,0,1,1.52,2.84c-.62-.9-1.28-1.76-1.95-2.63-.09-.11-.22,0-.14.11.68.88,1.31,1.72,1.94,2.63-.81-.76-1.54-1.51-2.31-2.32-.09-.1-.22,0-.12.12.75.79,1.51,1.58,2.31,2.32a20.33,20.33,0,0,1-2.58-1.93c-.1-.09-.22,0-.12.13a21.14,21.14,0,0,0,2.6,2,16.82,16.82,0,0,1-2.83-1.53c-.11-.07-.21.07-.09.14a16.94,16.94,0,0,0,2.82,1.54,12.06,12.06,0,0,1-2.93-1.11c-.12-.07-.2.08-.08.15a12.07,12.07,0,0,0,3,1.13,10.4,10.4,0,0,1-3-.65c-.13,0-.19.11-.06.16a10.63,10.63,0,0,0,3.1.66,9.8,9.8,0,0,1-3.06-.06c-.14,0-.17.14,0,.17a9.67,9.67,0,0,0,3.19,0,9.5,9.5,0,0,1-2.94.52c-.14,0-.14.17,0,.17a9.79,9.79,0,0,0,3-.52,7.32,7.32,0,0,1-2.57,1c-.13,0-.1.19,0,.17a7.51,7.51,0,0,0,2.59-1,6.6,6.6,0,0,1-2,1.43c-.13.05-.06.21.06.16a6.15,6.15,0,0,0,1.89-1.35,6.54,6.54,0,0,1-1,1.59c-.1.09,0,.21.11.13A5.8,5.8,0,0,0,43.59,61v0Zm.56-.77,3.11,3.87c.08.09.08.12.12,0a.67.67,0,0,1,.38-.32c.08,0,.08,0,0-.11L44.4,60.09c-.16-.18-.4,0-.25.19Zm-18.9-13.4H25.1c-.41,0-.82,0-1.24-.08a5.25,5.25,0,0,1-1-.19l-.08,0a.34.34,0,0,1-.26-.36.34.34,0,0,1,.3-.32l.08,0c.33-.05.69-.09,1-.12l1.3-.12-.56-.12c-.45-.1-.9-.21-1.33-.34a7.24,7.24,0,0,1-1.12-.4l0,0a.36.36,0,0,1-.22-.4.35.35,0,0,1,.36-.27h.07c.36,0,.74.05,1.11.09l1.11.1h0c-.46-.16-.92-.33-1.37-.52a8.88,8.88,0,0,1-1.12-.54c-.15-.1-.31-.19-.23-.45a.35.35,0,0,1,.39-.24h.07c.39.06.77.15,1.17.25l1,.25c-.39-.2-.79-.41-1.17-.64a10.06,10.06,0,0,1-1.08-.68c-.16-.11-.3-.25-.19-.49a.32.32,0,0,1,.18-.17.46.46,0,0,1,.33,0,12.45,12.45,0,0,1,1.2.4l1,.38-1-.73a11.91,11.91,0,0,1-1-.85c-.14-.13-.27-.3-.11-.52a.34.34,0,0,1,.39-.13l.05,0,.07,0a11.73,11.73,0,0,1,1.2.58c.3.15.58.31.87.47l-.81-.78a12.47,12.47,0,0,1-.93-1c-.11-.14-.21-.32,0-.51a.32.32,0,0,1,.32-.11l.08,0,.05,0,.06,0a12.75,12.75,0,0,1,1.15.77l1,.8c-.26-.33-.52-.68-.77-1a11.18,11.18,0,0,1-.79-1.2.44.44,0,0,0,0-.09.35.35,0,0,1,.07-.46.37.37,0,0,1,.46,0l.08.06a10.67,10.67,0,0,1,1.06,1c.29.28.58.58.87.87-.21-.37-.4-.73-.6-1.1a11.93,11.93,0,0,1-.56-1.22l0-.09a.27.27,0,0,0,0-.07.45.45,0,0,1,0-.08.34.34,0,0,1,.17-.3c.23-.15.38,0,.51.14a11.65,11.65,0,0,1,.86,1.07c.21.29.42.58.63.88-.12-.3-.23-.61-.34-.93s-.28-.85-.37-1.27a.35.35,0,0,1,0-.11.4.4,0,0,1,0-.07.36.36,0,0,1,.23-.33c.29-.1.38.09.49.26.25.36.47.76.68,1.14l.55,1.06c-.08-.34-.16-.67-.22-1a10.36,10.36,0,0,1-.21-1.25.67.67,0,0,1,0-.09v-.06a.34.34,0,0,1,.25-.33c.27-.07.37.11.46.28.19.38.35.78.5,1.17s.31.81.45,1.24c0-.35-.07-.7-.1-1.05s-.06-.79-.06-1.18v-.08a.35.35,0,0,1,.3-.36c.27,0,.34.14.41.31a8.77,8.77,0,0,1,.35,1.18c.12.47.22.95.31,1.43v0c0-.37,0-.73.07-1.1s0-.73.08-1.09c0,0,0-.06,0-.08a.34.34,0,0,1,.32-.32.34.34,0,0,1,.36.27l0,.07a7.45,7.45,0,0,1,.22,1.14c.06.45.09.9.13,1.36,0,.17,0,.36,0,.55.11-.42.21-.84.32-1.25s.17-.67.28-1a.16.16,0,0,0,0-.08.35.35,0,0,1,.68.09.42.42,0,0,0,0,.07,6.63,6.63,0,0,1,0,1.07c0,.41-.06.82-.11,1.23a1.14,1.14,0,0,0,0,.15l.34-.73c.13-.26.25-.53.4-.77a.37.37,0,0,1,.45-.24.36.36,0,0,1,.24.36V38a3.3,3.3,0,0,1-.12,1c-.09.43-.21.84-.34,1.25a.28.28,0,0,1,0,.07l.45-.56a6.37,6.37,0,0,1,.49-.57.37.37,0,0,1,.45-.13.36.36,0,0,1,.2.36s0,.05,0,.07a5.66,5.66,0,0,1-.69,1.84c-.09.18-.2.36-.29.53l.65-.52a3.73,3.73,0,0,1,.48-.37.36.36,0,0,1,.44,0,.38.38,0,0,1,.16.33.29.29,0,0,0,0,.07,4.58,4.58,0,0,1-1.24,1.87L37,43h0l.07,0a.36.36,0,0,1,.31.61,5,5,0,0,1-4.55,2,1.83,1.83,0,0,0-.4.05l3.2,3.51a.37.37,0,0,1,.13.41.38.38,0,0,1-.26.24.34.34,0,0,0-.2.16.36.36,0,0,1-.32.22c-.19,0-.26-.09-.36-.21l-3-3.67a2.27,2.27,0,0,0-.11.39,5.35,5.35,0,0,1-2.7,4.17.38.38,0,0,1-.48,0,.37.37,0,0,1-.08-.4.12.12,0,0,1,0-.06v0l.46-.84a4.48,4.48,0,0,1-2,.91h-.07a.35.35,0,0,1-.3-.2.37.37,0,0,1,.09-.44,5.46,5.46,0,0,1,.44-.42l.62-.56L27,49a5.86,5.86,0,0,1-1.92.4H25a.35.35,0,0,1-.34-.24c-.06-.21.05-.33.2-.44a5.59,5.59,0,0,1,.63-.39l.64-.36h-.09c-.43.07-.86.12-1.29.15a4.34,4.34,0,0,1-1.07,0l-.08,0a.36.36,0,0,1,0-.68l.08,0c.26-.1.55-.18.82-.27l.76-.22Zm6-.23a5,5,0,0,1-2.53,3.91c-.1.06-.08,0-.05-.06l1.09-2s0,0-.07,0c-.73.5-2.25,1.61-2.85,1.57-.1,0-.12,0,0-.07a19.54,19.54,0,0,0,1.88-1.88c0-.08,0-.11-.12-.07a11.85,11.85,0,0,1-3.44,1c-.11,0-.11,0,0-.06.48-.35,2-1.13,2.73-1.57,0,0,0-.07-.07-.07h0a14.83,14.83,0,0,1-4,.39c-.13,0-.12,0,0-.07.7-.26,2.56-.74,3.48-1,0,0,0-.06,0-.09a21.18,21.18,0,0,1-4.31-.27c-.13,0-.13,0,0-.06.57-.09,2-.2,3.24-.33l.82-.11c.07,0,.11-.08,0-.13a25,25,0,0,1-4.62-1.18c-.08,0-.12,0,0,0,1,0,3.32.32,4.59.38.06,0,.1-.05,0-.1a32,32,0,0,1-4.69-1.81c-.08,0-.13-.06,0,0,1.11.2,3.52.85,4.81,1.18.08,0,.09,0,0-.08a47.75,47.75,0,0,1-4.62-2.52c-.06,0-.08-.06-.08-.06l.1,0a42.6,42.6,0,0,1,4.82,1.93c.06,0,.07,0,0-.05-1.22-.89-3.45-2.4-4.39-3.27-.11-.11-.08-.07,0,0a34.35,34.35,0,0,1,4.66,2.64c.07,0,.09,0,0-.06a53.82,53.82,0,0,1-4-3.86c-.07-.09-.07-.08,0,0a43.28,43.28,0,0,1,4.41,3.4c.05,0,.07,0,.06-.06a41.53,41.53,0,0,1-3.37-4.46c-.08-.15-.09-.14,0,0a39.6,39.6,0,0,1,3.91,4s0,0,0,0a43.14,43.14,0,0,1-2.66-4.86c-.06-.15-.07-.15,0,0a52.68,52.68,0,0,1,3.22,4.53s.06,0,.06,0A34.33,34.33,0,0,1,27.57,36c0-.19,0-.1.06,0,.71,1,1.85,3.45,2.53,4.79,0,0,0,0,.06,0a42.48,42.48,0,0,1-1.17-5.06c0-.15,0-.13,0,0a48,48,0,0,1,1.79,4.93s.05,0,.07,0c-.11-1.34-.4-3.8-.42-4.92,0-.14,0-.1,0,0a33.57,33.57,0,0,1,1.07,4.9s.06.05.1,0c.11-1.26.21-3.57.32-4.57,0-.14,0-.11,0,0a25.16,25.16,0,0,1,.45,4.73c0,.06.06.07.11,0,.4-1.19.85-3.25,1.08-3.94,0-.14,0-.11,0,0a20.51,20.51,0,0,1-.38,4.3.06.06,0,0,0,.08.05c.44-.86,1.2-2.64,1.57-3.29.07-.12.05-.07.06,0a14.78,14.78,0,0,1-1,3.83s0,.09.07.08c.53-.62,1.54-2,2-2.45.08-.07.08-.08.06,0A12,12,0,0,1,34.7,42.8c0,.08,0,.13.05.13a18.76,18.76,0,0,0,2.15-1.58c.09-.06.07,0,.06,0-.06.58-1.35,1.9-2,2.56-.05.07,0,.11,0,.12l2.12-.79c.11,0,.1,0,0,.05a4.7,4.7,0,0,1-4.26,1.9h0a6.22,6.22,0,0,0,1.74-.79c.11-.09,0-.22-.11-.14a6.34,6.34,0,0,1-1.73.79,6.25,6.25,0,0,0,1.62-1.66c.07-.11-.08-.2-.15-.08a6.54,6.54,0,0,1-1.71,1.71,7.56,7.56,0,0,0,1.41-2.4c0-.13-.12-.19-.16-.06A7.36,7.36,0,0,1,32.36,45a9.55,9.55,0,0,0,1-2.86c0-.13-.14-.17-.17,0a9.51,9.51,0,0,1-1,2.82,9.76,9.76,0,0,0,.44-3.15.09.09,0,1,0-.17,0,9.78,9.78,0,0,1-.4,3,11,11,0,0,0-.19-3.17c0-.13-.2-.1-.17,0a10.26,10.26,0,0,1,.18,3.06,12.13,12.13,0,0,0-.66-3.1c0-.14-.21-.07-.16.05a12.32,12.32,0,0,1,.65,3.06,17.5,17.5,0,0,0-1.09-3c-.05-.12-.21-.05-.16.07a16.29,16.29,0,0,1,1.08,3A21.77,21.77,0,0,0,30,42c-.07-.11-.22,0-.15.1a21,21,0,0,1,1.53,2.83c-.63-.9-1.28-1.77-1.95-2.63-.09-.11-.22,0-.14.1.69.88,1.32,1.72,1.94,2.64-.81-.77-1.54-1.52-2.31-2.32-.1-.1-.22,0-.13.11.75.79,1.52,1.57,2.31,2.33a21,21,0,0,1-2.58-1.93c-.1-.1-.22,0-.11.12a20.79,20.79,0,0,0,2.59,2,16.36,16.36,0,0,1-2.82-1.54c-.12-.07-.22.07-.1.14a16.42,16.42,0,0,0,2.83,1.54A12,12,0,0,1,28,44.31c-.12-.07-.2.09-.08.15a12.24,12.24,0,0,0,3,1.12,10.32,10.32,0,0,1-3-.65c-.13,0-.2.11-.07.16a10.71,10.71,0,0,0,3.1.67,9.68,9.68,0,0,1-3.06-.06c-.13,0-.17.15,0,.16a9.69,9.69,0,0,0,3.19.06,9.74,9.74,0,0,1-2.94.52c-.14,0-.13.17,0,.17a9.59,9.59,0,0,0,3-.52,7.59,7.59,0,0,1-2.56,1,.09.09,0,1,0,0,.17,7.55,7.55,0,0,0,2.59-1,6.58,6.58,0,0,1-2,1.44c-.12,0-.07.2.07.15a6.32,6.32,0,0,0,1.88-1.34,6.47,6.47,0,0,1-1,1.59.09.09,0,1,0,.12.13,6.18,6.18,0,0,0,1.06-1.61s0,0,0,0Zm.56-.77,3.12,3.87c.07.1.07.13.11,0a.68.68,0,0,1,.37-.32c.09,0,.09,0,0-.11l-3.36-3.69c-.16-.17-.4,0-.25.2Z"/></g></g></svg>