<svg xmlns="http://www.w3.org/2000/svg" viewBox="0 0 851.2 788.29"><defs><style>.cls-1{fill:#004c8a;}.cls-2{fill:#a21118;}.cls-3{fill:#8db135;}.cls-4{fill:#fff;}.cls-5{fill:#dacc2f;}.cls-6{fill:#6daa90;}.cls-7,.cls-8{fill:none;stroke:#dacc2f;stroke-miterlimit:10;}.cls-7{stroke-width:0.11px;}.cls-8{stroke-width:0.2px;}.cls-9{fill:#004c8c;}.cls-10{fill:#6dac92;}</style></defs><title>Ativo 8</title><g id="Camada_2" data-name="Camada 2"><g id="Camada_1-2" data-name="Camada 1"><polygon class="cls-1" points="301.63 208.24 318.75 218.5 322.18 218.5 311.9 232.19 318.75 232.19 325.61 232.19 325.61 221.88 332.47 218.5 339.27 204.79 339.27 201.36 329.01 201.36 325.61 208.24 301.63 208.24"/><polygon class="cls-2" points="322.18 204.79 315.3 201.36 315.3 204.79 322.18 204.79"/><polygon class="cls-2" points="342.69 201.36 339.27 201.36 339.27 204.79 342.69 201.36"/><polygon class="cls-1" points="304.8 245.53 331.15 261.31 336.41 261.31 320.64 282.38 331.15 282.38 341.65 282.38 341.65 266.59 352.17 261.31 362.71 240.26 362.71 234.99 346.92 234.99 341.65 245.53 304.8 245.53"/><polygon class="cls-2" points="336.41 245.53 325.89 240.26 325.89 245.53 336.41 245.53"/><polygon class="cls-2" points="367.99 234.99 362.71 234.99 362.71 240.26 367.99 234.99"/><polygon class="cls-1" points="533.6 245.78 506.69 261.86 501.37 261.86 517.45 283.37 506.69 283.37 495.99 283.37 495.99 267.24 485.22 261.86 474.49 240.41 474.49 235.02 490.61 235.02 495.99 245.78 533.6 245.78"/><polygon class="cls-2" points="501.37 245.78 512.08 240.41 512.08 245.78 501.37 245.78"/><polygon class="cls-2" points="469.09 235.02 474.49 235.02 474.49 240.41 469.09 235.02"/><polygon class="cls-1" points="555.49 205.12 532.14 219.14 527.5 219.14 541.5 237.83 532.14 237.83 522.78 237.83 522.78 223.78 513.47 219.14 504.13 200.48 504.13 195.79 518.12 195.79 522.78 205.12 555.49 205.12"/><polygon class="cls-2" points="524.81 200.48 534.11 195.79 534.11 200.48 524.81 200.48"/><polygon class="cls-2" points="499.5 195.79 504.13 195.79 504.13 200.48 499.5 195.79"/><polygon class="cls-2" points="358.05 207.25 346.05 191.27 374.02 207.25 358.05 207.25"/><polygon class="cls-1" points="392.96 185.73 377.98 207.25 369.98 211.27 381.99 211.27 374.02 215.23 369.98 219.2 365.98 215.23 362.02 215.23 358.05 211.27 354.07 207.25 358.05 203.24 365.98 203.24 392.96 185.73"/><polygon class="cls-2" points="480.41 207.21 492.35 191.27 464.44 207.21 480.41 207.21"/><polygon class="cls-1" points="445.49 185.73 460.44 207.21 468.43 211.27 456.42 211.27 464.44 215.23 468.43 219.2 472.37 215.23 476.38 215.23 480.41 211.27 484.37 207.21 480.41 203.24 472.37 203.24 445.49 185.73"/><polygon class="cls-3" points="723.34 273.23 723.34 357.98 757.24 374.91 757.24 352.34 745.97 346.66 745.97 273.23 733.36 260.08 723.34 273.23"/><polygon class="cls-3" points="808.04 261.93 808.04 324.1 779.82 346.68 779.82 318.44 785.48 312.47 785.48 261.93 796.78 250.63 808.04 261.93"/><polygon class="cls-3" points="757.24 239.36 768.52 228.85 779.82 239.36 779.82 420.09 757.24 420.09 757.24 239.36"/><polygon class="cls-2" points="723.34 284.51 717.64 278.93 723.34 278.93 723.34 284.51"/><polygon class="cls-2" points="723.34 307.14 717.64 301.49 723.34 301.49 723.34 307.14"/><polygon class="cls-2" points="723.34 318.44 717.64 312.78 723.34 312.78 723.34 318.44"/><polygon class="cls-2" points="723.34 329.74 717.64 324.1 723.34 324.1 723.34 329.74"/><polygon class="cls-2" points="723.34 295.8 717.64 290.22 723.34 290.22 723.34 295.8"/><polygon class="cls-2" points="745.97 290.22 751.58 284.58 745.97 284.58 745.97 290.22"/><polygon class="cls-2" points="745.97 312.78 751.58 307.14 745.97 307.14 745.97 312.78"/><polygon class="cls-2" points="745.97 324.1 751.58 318.44 745.97 318.44 745.97 324.1"/><polygon class="cls-2" points="745.97 335.39 751.58 329.74 745.97 329.74 745.97 335.39"/><polygon class="cls-2" points="745.97 301.49 751.58 295.8 745.97 295.8 745.97 301.49"/><polygon class="cls-2" points="808.04 267.58 813.75 261.99 808.04 261.99 808.04 267.58"/><polygon class="cls-2" points="808.04 290.22 813.75 284.58 808.04 284.58 808.04 290.22"/><polygon class="cls-2" points="808.04 301.49 813.75 295.8 808.04 295.8 808.04 301.49"/><polygon class="cls-2" points="808.04 312.78 813.75 307.14 808.04 307.14 808.04 312.78"/><polygon class="cls-2" points="808.04 278.93 813.75 273.23 808.04 273.23 808.04 278.93"/><polygon class="cls-2" points="762.9 245 757.24 239.39 762.9 239.39 762.9 245"/><polygon class="cls-2" points="762.9 267.58 757.24 261.99 762.9 261.99 762.9 267.58"/><polygon class="cls-2" points="762.9 278.93 757.24 273.23 762.9 273.23 762.9 278.93"/><polygon class="cls-2" points="762.9 290.22 757.24 284.58 762.9 284.58 762.9 290.22"/><polygon class="cls-2" points="762.9 256.33 757.24 250.63 762.9 250.63 762.9 256.33"/><polygon class="cls-2" points="762.9 301.49 757.24 295.8 762.9 295.8 762.9 301.49"/><polygon class="cls-2" points="762.9 324.1 757.24 318.44 762.9 318.44 762.9 324.1"/><polygon class="cls-2" points="762.9 335.39 757.24 329.74 762.9 329.74 762.9 335.39"/><polygon class="cls-2" points="762.9 346.66 757.24 341.04 762.9 341.04 762.9 346.66"/><polygon class="cls-2" points="762.9 312.78 757.24 307.14 762.9 307.14 762.9 312.78"/><polygon class="cls-2" points="762.9 357.98 757.24 352.34 762.9 352.34 762.9 357.98"/><polygon class="cls-2" points="762.9 380.53 757.24 374.91 762.9 374.91 762.9 380.53"/><polygon class="cls-2" points="762.9 391.86 757.24 386.2 762.9 386.2 762.9 391.86"/><polygon class="cls-2" points="762.9 369.27 757.24 363.62 762.9 363.62 762.9 369.27"/><polygon class="cls-4" points="768.52 245.22 774.19 239.56 768.52 239.56 768.52 245.22"/><polygon class="cls-4" points="768.52 256.45 774.19 250.86 768.52 250.86 768.52 256.45"/><polygon class="cls-4" points="768.52 279.09 774.19 273.48 768.52 273.48 768.52 279.09"/><polygon class="cls-4" points="768.52 290.39 774.19 284.76 768.52 284.76 768.52 290.39"/><polygon class="cls-4" points="768.52 301.68 774.19 296.05 768.52 296.05 768.52 301.68"/><polygon class="cls-4" points="768.52 267.79 774.19 262.15 768.52 262.15 768.52 267.79"/><polygon class="cls-4" points="768.52 312.97 774.19 307.35 768.52 307.35 768.52 312.97"/><polygon class="cls-4" points="768.52 335.56 774.19 329.94 768.52 329.94 768.52 335.56"/><polygon class="cls-4" points="768.52 346.85 774.19 341.23 768.52 341.23 768.52 346.85"/><polygon class="cls-4" points="768.52 324.29 774.19 318.64 768.52 318.64 768.52 324.29"/><polygon class="cls-4" points="729.1 279.09 734.74 273.48 729.1 273.48 729.1 279.09"/><polygon class="cls-4" points="729.1 290.39 734.74 284.76 729.1 284.76 729.1 290.39"/><polygon class="cls-4" points="729.1 301.68 734.74 296.05 729.1 296.05 729.1 301.68"/><polygon class="cls-4" points="729.1 312.97 734.74 307.35 729.1 307.35 729.1 312.97"/><polygon class="cls-4" points="729.1 335.56 734.74 329.94 729.1 329.94 729.1 335.56"/><polygon class="cls-4" points="729.1 346.85 734.74 341.23 729.1 341.23 729.1 346.85"/><polygon class="cls-4" points="729.1 324.29 734.74 318.64 729.1 318.64 729.1 324.29"/><polygon class="cls-4" points="791.38 264.81 797.07 259.11 791.38 259.11 791.38 264.81"/><polygon class="cls-4" points="791.38 276.11 797.07 270.41 791.38 270.41 791.38 276.11"/><polygon class="cls-4" points="791.38 287.34 797.07 281.69 791.38 281.69 791.38 287.34"/><polygon class="cls-4" points="791.38 298.69 797.07 292.98 791.38 292.98 791.38 298.69"/><polygon class="cls-4" points="791.38 321.24 797.07 315.6 791.38 315.6 791.38 321.24"/><polygon class="cls-4" points="791.38 332.57 797.07 326.9 791.38 326.9 791.38 332.57"/><polygon class="cls-4" points="791.38 309.98 797.07 304.34 791.38 304.34 791.38 309.98"/><polygon class="cls-2" points="768.52 391.86 774.19 386.2 768.52 386.2 768.52 391.86"/><polygon class="cls-2" points="768.52 403.15 774.19 397.51 768.52 397.51 768.52 403.15"/><polygon class="cls-2" points="768.52 380.53 774.19 374.91 768.52 374.91 768.52 380.53"/><polygon class="cls-2" points="779.82 374.91 785.48 369.27 779.82 369.27 779.82 374.91"/><polygon class="cls-2" points="779.82 386.2 785.48 380.6 779.82 380.6 779.82 386.2"/><polygon class="cls-2" points="779.82 363.62 785.48 357.98 779.82 357.98 779.82 363.62"/><polygon class="cls-5" points="87.27 276.85 93.66 264.04 106.48 257.62 119.33 244.77 138.59 238.41 152.7 244.19 170.68 238.41 189.91 244.77 196.36 264.04 202.81 283.33 74.41 283.33 87.27 276.85"/><polygon class="cls-2" points="183.48 270.46 177.07 283.33 189.91 283.33 189.91 264.04 183.48 264.04 183.48 270.46"/><polygon class="cls-2" points="35.85 276.85 42.34 264.04 55.18 257.62 67.95 244.77 93.66 238.41 100.06 231.96 106.48 225.56 125.79 225.56 145.01 238.41 151.42 251.2 157.8 257.62 164.22 257.62 170.68 264.04 183.48 270.46 189.91 276.85 196.36 283.33 23.07 283.33 35.85 276.85"/><polygon class="cls-5" points="80.79 270.46 74.41 276.85 87.27 276.85 87.27 264.04 80.79 264.04 80.79 270.46"/><polygon class="cls-5" points="132.17 270.46 125.79 283.33 138.59 283.33 138.59 264.04 132.17 264.04 132.17 270.46"/><polygon class="cls-5" points="100.06 270.46 93.66 276.85 106.48 283.33 106.48 257.62 100.06 264.04 100.06 270.46"/><polygon class="cls-5" points="74.41 257.62 74.41 264.04 80.79 264.04 80.79 244.77 74.41 257.62"/><polygon class="cls-5" points="100.06 240.51 100.06 244.77 106.48 244.77 106.48 231.96 100.06 240.51"/><polygon class="cls-5" points="93.66 257.62 93.66 257.62 100.06 257.62 100.06 244.77 93.66 257.62"/><polygon class="cls-5" points="112.91 264.04 112.91 276.85 119.33 270.46 119.33 244.77 112.91 264.04"/><polygon class="cls-5" points="125.79 251.2 125.79 257.62 132.12 264.04 132.12 231.96 125.79 251.2"/><polygon class="cls-5" points="151.42 251.2 151.42 257.62 145.01 264.04 145.01 238.41 151.42 251.2"/><polygon class="cls-5" points="170.68 264.04 170.68 276.85 164.22 283.33 164.22 257.62 170.68 264.04"/><polygon class="cls-2" points="183.48 249.58 183.48 259.23 177.07 264.04 177.07 244.77 183.48 249.58"/><polygon class="cls-2" points="164.22 244.77 164.22 251.2 170.68 244.77 170.68 238.41 164.22 244.77"/><polygon class="cls-5" points="61.59 270.46 61.59 276.85 67.95 276.85 67.95 257.62 61.59 270.46"/><polygon class="cls-5" points="48.75 270.46 48.75 276.85 55.18 276.85 55.18 257.62 48.75 270.46"/><rect class="cls-3" x="119.33" y="199.88" width="6.46" height="25.69"/><rect class="cls-3" x="112.85" y="206.24" width="19.32" height="6.48"/><polygon class="cls-5" points="164.84 106.28 164.84 108.3 164.84 110.18 166.74 112.14 166.74 114.02 166.74 115.92 164.84 117.87 164.84 119.79 164.84 121.71 172.56 121.71 172.56 119.79 172.49 117.87 170.59 115.92 170.59 114.02 170.59 112.1 172.49 110.18 172.49 108.3 172.56 106.34 164.84 106.28"/><polygon class="cls-5" points="178.99 106.28 178.97 108.23 178.99 110.16 180.91 112.14 180.85 114.02 180.99 115.92 178.97 117.84 178.97 119.76 178.97 121.71 186.67 121.71 186.67 119.79 186.67 117.87 184.75 115.92 184.72 114.02 184.79 112.1 186.67 110.16 186.67 108.3 186.67 106.34 178.99 106.28"/><polygon class="cls-5" points="193.15 106.34 193.15 108.3 193.15 110.16 194.97 112.1 194.97 114.02 195.03 115.92 193.08 117.84 193.15 119.79 193.15 121.71 200.79 121.71 200.79 119.76 200.79 117.84 198.91 115.92 198.86 113.97 198.84 112.1 200.73 110.16 200.79 108.3 200.79 106.34 193.15 106.34"/><polygon class="cls-5" points="207.25 106.34 207.25 108.23 207.19 110.12 209.14 112.04 209.07 114.02 209.14 115.92 207.25 117.87 207.19 119.79 207.19 121.71 214.88 121.71 214.88 119.79 214.88 117.84 212.94 115.92 213.04 113.97 213.04 112.1 214.94 110.16 214.94 108.23 214.88 106.28 207.25 106.34"/><polygon class="cls-5" points="150.76 106.28 150.71 108.3 150.71 110.16 152.73 112.1 152.73 114.02 152.73 115.92 150.71 117.87 150.71 119.79 150.71 121.71 158.45 121.71 158.45 119.79 158.45 117.84 156.5 115.92 156.43 114.02 156.5 112.1 158.38 110.16 158.38 108.3 158.38 106.28 150.76 106.28"/><polygon class="cls-5" points="136.62 106.34 136.62 108.3 136.62 110.21 138.51 112.1 138.51 113.97 138.57 115.92 136.67 117.84 136.67 119.79 136.67 121.71 144.29 121.71 144.29 119.79 144.29 117.84 142.34 115.92 142.34 114.02 142.34 112.04 144.29 110.18 144.29 108.26 144.29 106.34 136.62 106.34"/><polygon class="cls-5" points="122.47 106.34 122.47 108.26 122.47 110.18 124.36 112.1 124.43 114.02 124.5 115.92 122.47 117.87 122.47 119.79 122.47 121.71 130.19 121.71 130.19 119.79 130.16 117.84 128.25 115.92 128.25 114.02 128.2 112.1 130.19 110.18 130.12 108.23 130.19 106.34 122.47 106.34"/><polygon class="cls-5" points="108.37 106.34 108.37 108.3 108.37 110.18 110.23 112.1 110.26 114.02 110.26 115.92 108.37 117.84 108.41 119.79 108.41 121.71 116.03 121.71 116.05 119.76 116.05 117.87 114.07 115.92 114.07 114.02 114.07 112.1 116.03 110.16 116.03 108.23 116.03 106.34 108.37 106.34"/><rect class="cls-1" x="119.16" y="127.17" width="82.38" height="49.39"/><rect class="cls-1" x="135.72" y="187.6" width="49.29" height="5.46"/><rect class="cls-6" x="146.62" y="176.56" width="27.46" height="11.03"/><rect class="cls-6" x="125.46" y="132.67" width="70.56" height="32.94"/><path class="cls-6" d="M160.35,168.38a2.74,2.74,0,1,1-2.77,2.71,2.77,2.77,0,0,1,2.77-2.71"/><path class="cls-2" d="M114,190.31H98.18a3.5,3.5,0,1,1,0-7,1.83,1.83,0,0,1,.32,0,1.84,1.84,0,0,0,1.86-1.21,6.12,6.12,0,0,1,11-1,1.82,1.82,0,0,0,1.89.86,3.69,3.69,0,0,1,.77-.06,4.22,4.22,0,1,1,0,8.44"/><path class="cls-2" d="M677.69,109.42a6,6,0,0,1-6.22,2.83,12.67,12.67,0,0,0-2.55-.2,13.92,13.92,0,0,0-10.07,4.34H674a11.41,11.41,0,0,0,8.41-3.31,10.5,10.5,0,0,0,3-7.56,10.93,10.93,0,0,0-.61-3.11A20.73,20.73,0,0,0,677.69,109.42Z"/><path class="cls-2" d="M721.24,116.78a7.12,7.12,0,0,0-1.06.05,6.05,6.05,0,0,1-6.14-4,20.28,20.28,0,0,0-19-13.34,19.54,19.54,0,0,0-7.08,1.37,14.65,14.65,0,0,1,.9,4.55,14,14,0,0,1-3.94,10.06A15,15,0,0,1,674,119.85H658.18a10.2,10.2,0,0,1-1.63-.16,13.63,13.63,0,0,0-1.57,6.27,14,14,0,0,0,13.95,13.92h52.32a11.54,11.54,0,1,0,0-23.08Z"/><path class="cls-2" d="M674.51,94.58a11.05,11.05,0,0,0-9.35,5.38,5.52,5.52,0,0,1-5.67,2.58,6.66,6.66,0,0,0-1.3-.1,7,7,0,1,0,0,14H674a11.41,11.41,0,0,0,8.41-3.31,10.5,10.5,0,0,0,3-7.56C685.21,100.24,680.82,94.58,674.51,94.58Z"/><polygon class="cls-3" points="574.76 75.04 574.76 132.64 596.58 139.87 596.58 154.2 610.74 154.2 610.74 139.87 610.74 132.64 589.15 125.45 589.15 75.04 581.96 67.85 574.76 75.04"/><polygon class="cls-3" points="627.58 115.19 627.58 143.14 610.59 150.36 610.59 164.75 596.35 164.75 596.35 150.36 596.35 143.14 613.13 135.94 613.13 115.19 620.54 108.73 627.58 115.19"/><polygon class="cls-3" points="627.58 63.11 627.58 91.06 610.59 98.28 610.59 112.67 596.35 112.67 596.35 98.28 596.35 91.06 613.13 83.86 613.13 63.11 620.54 56.65 627.58 63.11"/><polygon class="cls-3" points="596.35 132.64 596.35 53.48 603.57 46.23 610.74 53.48 610.74 165.8 596.35 165.8 596.35 132.64"/><polygon class="cls-2" points="596.35 103.83 589.15 96.67 596.35 96.67 596.35 103.83"/><polygon class="cls-2" points="596.35 89.44 589.15 82.25 596.35 82.25 596.35 89.44"/><polygon class="cls-2" points="596.35 74.77 589.15 67.55 596.35 67.55 596.35 74.77"/><polygon class="cls-2" points="596.35 61.62 589.15 54.49 596.35 54.49 596.35 61.62"/><polygon class="cls-4" points="601.06 113.02 608.26 105.79 601.06 105.79 601.06 113.02"/><polygon class="cls-4" points="601.06 98.6 608.26 91.41 601.06 91.41 601.06 98.6"/><polygon class="cls-4" points="601.06 83.93 608.26 76.73 601.06 76.73 601.06 83.93"/><polygon class="cls-4" points="601.06 70.83 608.26 63.64 601.06 63.64 601.06 70.83"/><polygon class="cls-4" points="582.09 131.95 589.26 124.75 582.09 124.75 582.09 131.95"/><polygon class="cls-4" points="582.09 117.55 589.26 110.39 582.09 110.39 582.09 117.55"/><polygon class="cls-4" points="582.09 102.89 589.26 95.66 582.09 95.66 582.09 102.89"/><polygon class="cls-4" points="582.09 89.8 589.26 82.59 582.09 82.59 582.09 89.8"/><polygon class="cls-2" points="574.76 118.25 567.56 111.03 574.76 111.03 574.76 118.25"/><polygon class="cls-2" points="574.76 103.83 567.56 96.67 574.76 96.67 574.76 103.83"/><polygon class="cls-2" points="574.76 89.44 567.56 82.25 574.76 82.25 574.76 89.44"/><polygon class="cls-2" points="627.58 84.92 634.78 77.76 627.58 77.76 627.58 84.92"/><polygon class="cls-2" points="627.58 70.53 634.78 63.34 627.58 63.34 627.58 70.53"/><polygon class="cls-4" points="621.64 84.92 614.44 77.76 621.64 77.76 621.64 84.92"/><polygon class="cls-4" points="621.64 70.53 614.44 63.34 621.64 63.34 621.64 70.53"/><polygon class="cls-2" points="627.58 137.52 634.78 130.36 627.58 130.36 627.58 137.52"/><polygon class="cls-2" points="627.58 123.13 634.78 115.94 627.58 115.94 627.58 123.13"/><polygon class="cls-4" points="621.64 137.52 614.44 130.36 621.64 130.36 621.64 137.52"/><polygon class="cls-4" points="621.64 123.13 614.44 115.94 621.64 115.94 621.64 123.13"/><polygon class="cls-3" points="102.12 317.06 95.39 310.4 88.77 317.06 88.77 334.34 82.13 336.58 82.13 294.04 75.48 287.34 68.79 294.04 68.79 341 68.79 347.65 68.79 360.98 68.79 362.9 62.15 360.64 62.15 314.02 55.5 307.35 48.83 314.02 48.83 367.3 68.79 373.93 68.79 386.55 82.13 386.55 82.13 378.82 82.13 373.98 82.13 367.3 82.13 347.57 102.12 341 102.12 317.06"/><polygon class="cls-2" points="68.79 340.67 62.15 333.99 68.79 333.99 68.79 340.67"/><polygon class="cls-2" points="68.79 327.31 62.15 320.66 68.79 320.66 68.79 327.31"/><polygon class="cls-2" points="68.79 313.75 62.15 307.11 68.79 307.11 68.79 313.75"/><polygon class="cls-2" points="68.79 301.63 62.15 294.95 68.79 294.95 68.79 301.63"/><polygon class="cls-4" points="55.61 366.68 62.26 360.02 55.61 360.02 55.61 366.68"/><polygon class="cls-4" points="55.61 353.35 62.26 346.68 55.61 346.68 55.61 353.35"/><polygon class="cls-4" points="55.61 339.77 62.26 333.12 55.61 333.12 55.61 339.77"/><polygon class="cls-4" points="55.61 327.64 62.26 321 55.61 321 55.61 327.64"/><polygon class="cls-4" points="75.45 343.86 82.08 337.16 75.45 337.16 75.45 343.86"/><polygon class="cls-4" points="75.45 330.52 82.08 323.82 75.45 323.82 75.45 330.52"/><polygon class="cls-4" points="75.45 316.93 82.08 310.26 75.45 310.26 75.45 316.93"/><polygon class="cls-4" points="75.45 304.81 82.08 298.19 75.45 298.19 75.45 304.81"/><polygon class="cls-2" points="48.83 353.96 42.19 347.3 48.83 347.3 48.83 353.96"/><polygon class="cls-2" points="48.83 340.67 42.19 333.99 48.83 333.99 48.83 340.67"/><polygon class="cls-2" points="48.83 327.31 42.19 320.66 48.83 320.66 48.83 327.31"/><polygon class="cls-4" points="97.68 337.33 91.04 330.69 97.68 330.69 97.68 337.33"/><polygon class="cls-4" points="97.68 324.02 91.04 317.31 97.68 317.31 97.68 324.02"/><polygon class="cls-6" points="649.66 268.34 706.68 268.47 706.59 294.68 623.48 294.51 649.66 268.34"/><polygon class="cls-1" points="616.44 294.49 619.03 294.51 646.22 266.03 706.68 266.13 706.68 264.01 645.36 263.93 616.44 294.49"/><polygon class="cls-1" points="606.15 294.49 608.79 294.49 642.21 259.44 706.68 259.55 706.68 257.44 641.3 257.3 606.15 294.49"/><polygon class="cls-1" points="678.33 272.7 667.21 276.35 658.47 277.04 649.74 281.42 640.94 285.8 636.6 290.11 627.86 294.51 706.59 294.68 706.62 283.75 702.25 277.16 697.88 272.72 678.33 272.7"/><polygon class="cls-1" points="706.68 255.07 697.88 255.07 697.93 233.21 706.68 233.21 706.68 255.07"/><polygon class="cls-1" points="662.84 255.02 645.36 254.96 645.45 233.11 662.89 233.14 662.84 255.02"/><polygon class="cls-1" points="662.96 228.77 645.45 228.74 645.45 224.35 662.96 224.4 662.96 228.77"/><polygon class="cls-6" points="662.96 224.4 645.45 224.35 645.45 215.6 662.96 215.65 662.96 224.4"/><polygon class="cls-1" points="706.71 228.85 697.93 228.83 697.93 224.44 706.71 224.44 706.71 228.85"/><rect class="cls-6" x="697.93" y="215.7" width="8.78" height="8.74"/><path class="cls-1" d="M680.44,215.7l-13.28,8.69L667.09,255l13.32.05a8.76,8.76,0,1,1,8.77-8.74,8.81,8.81,0,0,1-8.77,8.74H693.5l.07-30.62Z"/><polygon class="cls-6" points="684.72 255.07 676.01 255.07 676.07 241.89 684.75 241.92 684.72 255.07"/><polygon class="cls-6" points="658.52 255.02 649.8 254.96 649.8 241.89 658.52 241.84 658.52 255.02"/><polygon class="cls-6" points="702.25 255.07 697.88 255.07 697.88 241.95 702.31 241.95 702.25 255.07"/><polygon class="cls-6" points="668.01 225.46 666.58 223.34 680.43 214.22 694.19 223.4 692.89 225.46 680.43 217.15 668.01 225.46"/><polygon class="cls-6" points="662.89 234.38 645.4 234.37 645.45 231.87 662.89 231.93 662.89 234.38"/><polygon class="cls-6" points="697.93 231.96 706.71 231.98 706.68 234.45 697.88 234.42 697.93 231.96"/><polygon class="cls-1" points="623.48 268.23 623.52 246.37 627.91 237.6 632.29 246.37 632.29 259.52 623.48 268.23"/><polygon class="cls-1" points="614.72 276.96 614.82 263.68 619.21 254.96 623.48 263.87 623.48 268.23 614.72 276.96"/><polygon class="cls-1" points="632.29 263.87 632.29 255.11 636.68 250.81 636.61 255.11 636.61 259.52 632.29 263.87"/><polygon class="cls-3" points="294.95 171.9 294.95 305.4 274.95 326.74 274.95 300.04 280.56 294.44 280.56 171.9 287.54 163.94 294.95 171.9"/><path class="cls-3" d="M267.91,340.07h7V169.2l-10.74-16-10.66,16V330.38C258.9,333.93,263,336.47,267.91,340.07Z"/><polygon class="cls-2" points="285.58 254.64 290.95 249.32 285.58 249.32 285.58 254.64"/><polygon class="cls-2" points="285.58 275.99 290.95 270.68 285.58 270.68 285.58 275.99"/><polygon class="cls-2" points="285.58 286.68 290.95 281.34 285.58 281.34 285.58 286.68"/><polygon class="cls-2" points="285.58 297.39 290.95 292.02 285.58 292.02 285.58 297.39"/><polygon class="cls-2" points="285.58 265.31 290.95 260.01 285.58 260.01 285.58 265.31"/><polygon class="cls-4" points="285.58 187.87 290.95 182.55 285.58 182.55 285.58 187.87"/><polygon class="cls-4" points="285.58 209.21 290.95 203.9 285.58 203.9 285.58 209.21"/><polygon class="cls-4" points="285.58 219.9 290.95 214.56 285.58 214.56 285.58 219.9"/><polygon class="cls-4" points="285.58 230.61 290.95 225.24 285.58 225.24 285.58 230.61"/><polygon class="cls-4" points="285.58 198.54 290.95 193.23 285.58 193.23 285.58 198.54"/><polygon class="cls-4" points="263.37 185.18 268.73 179.87 263.37 179.87 263.37 185.18"/><polygon class="cls-4" points="263.37 206.53 268.73 201.22 263.37 201.22 263.37 206.53"/><polygon class="cls-4" points="263.37 217.22 268.73 211.88 263.37 211.88 263.37 217.22"/><polygon class="cls-4" points="263.37 227.93 268.73 222.56 263.37 222.56 263.37 227.93"/><polygon class="cls-4" points="263.37 195.85 268.73 190.54 263.37 190.54 263.37 195.85"/><polygon class="cls-3" points="233.55 142.54 233.55 276.04 253.55 297.38 253.55 270.68 247.94 265.07 247.94 142.54 240.62 132.92 233.55 142.54"/><polygon class="cls-2" points="242.9 225.28 237.54 219.96 242.9 219.96 242.9 225.28"/><polygon class="cls-2" points="242.9 246.63 237.54 241.31 242.9 241.31 242.9 246.63"/><polygon class="cls-2" points="242.9 257.32 237.54 251.98 242.9 251.98 242.9 257.32"/><polygon class="cls-2" points="242.9 268.02 237.54 262.66 242.9 262.66 242.9 268.02"/><polygon class="cls-2" points="242.9 235.95 237.54 230.64 242.9 230.64 242.9 235.95"/><polygon class="cls-3" points="213.55 153.22 213.55 219.96 233.55 241.31 233.55 214.6 227.93 209 227.93 153.22 220.96 145.25 213.55 153.22"/><polygon class="cls-2" points="222.91 169.2 217.55 163.89 222.91 163.89 222.91 169.2"/><polygon class="cls-2" points="222.91 190.56 217.55 185.24 222.91 185.24 222.91 190.56"/><polygon class="cls-2" points="222.91 201.25 217.55 195.91 222.91 195.91 222.91 201.25"/><polygon class="cls-2" points="222.91 211.95 217.55 206.58 222.91 206.58 222.91 211.95"/><polygon class="cls-2" points="222.91 179.88 217.55 174.57 222.91 174.57 222.91 179.88"/><polygon class="cls-2" points="258.9 174.56 253.55 169.25 258.9 169.25 258.9 174.56"/><polygon class="cls-2" points="258.9 195.91 253.55 190.6 258.9 190.6 258.9 195.91"/><polygon class="cls-2" points="258.9 206.58 253.55 201.27 258.9 201.27 258.9 206.58"/><polygon class="cls-2" points="258.9 217.26 253.55 211.94 258.9 211.94 258.9 217.26"/><polygon class="cls-2" points="258.9 185.24 253.55 179.9 258.9 179.9 258.9 185.24"/><polygon class="cls-2" points="258.9 227.95 253.55 222.6 258.9 222.6 258.9 227.95"/><polygon class="cls-2" points="258.9 249.32 253.55 243.96 258.9 243.96 258.9 249.32"/><polygon class="cls-2" points="258.9 260 253.55 254.64 258.9 254.64 258.9 260"/><polygon class="cls-2" points="258.9 270.68 253.55 265.36 258.9 265.36 258.9 270.68"/><polygon class="cls-2" points="258.9 238.65 253.55 233.29 258.9 233.29 258.9 238.65"/><polygon class="cls-2" points="258.9 281.34 253.55 276.01 258.9 276.01 258.9 281.34"/><polygon class="cls-2" points="258.9 302.69 253.55 297.38 258.9 297.38 258.9 302.69"/><polygon class="cls-2" points="258.9 313.38 253.55 308.05 258.9 308.05 258.9 313.38"/><polygon class="cls-2" points="258.9 292.05 253.55 286.67 258.9 286.67 258.9 292.05"/><polygon class="cls-2" points="264.21 313.42 269.54 308.05 264.21 308.05 264.21 313.42"/><polygon class="cls-2" points="264.21 324.07 269.54 318.73 264.21 318.73 264.21 324.07"/><polygon class="cls-2" points="264.21 302.69 269.54 297.38 264.21 297.38 264.21 302.69"/><line class="cls-2" x1="274.95" y1="292.05" x2="274.95" y2="297.38"/><line class="cls-2" x1="274.95" y1="302.69" x2="274.95" y2="308.05"/><line class="cls-2" x1="274.95" y1="281.34" x2="274.95" y2="286.66"/><polygon class="cls-2" points="295.29 201.36 300.66 196.05 295.29 196.05 295.29 201.36"/><polygon class="cls-2" points="295.29 222.71 300.66 217.4 295.29 217.4 295.29 222.71"/><polygon class="cls-2" points="295.29 233.4 300.66 228.06 295.29 228.06 295.29 233.4"/><polygon class="cls-2" points="295.29 244.11 300.66 238.74 295.29 238.74 295.29 244.11"/><polygon class="cls-2" points="295.29 212.03 300.66 206.73 295.29 206.73 295.29 212.03"/><polygon class="cls-5" points="598.2 183.66 586.45 171.9 568.78 130.6 562.88 124.74 556.96 124.74 551.12 130.6 545.15 148.27 539.31 148.27 533.39 142.41 521.64 142.41 515.67 130.6 509.81 124.74 503.95 118.84 492.15 118.84 480.34 124.74 480.34 130.6 486.24 130.6 486.24 136.51 480.34 142.41 468.57 165.99 450.87 177.75 445.03 183.66 598.2 183.66"/><polygon class="cls-2" points="486.24 142.41 480.34 148.32 492.15 148.32 492.15 136.51 486.24 136.51 486.24 142.41"/><polygon class="cls-2" points="509.81 142.41 521.64 142.41 515.67 136.51 515.67 130.6 509.81 124.74 509.81 142.41"/><polygon class="cls-2" points="492.15 154.17 498 160.09 498 148.32 492.15 148.32 492.15 154.17"/><polygon class="cls-2" points="509.81 177.75 503.95 183.66 515.67 183.66 515.67 171.9 509.81 171.9 509.81 177.75"/><polygon class="cls-2" points="521.64 148.32 527.54 154.23 533.39 154.23 527.54 142.41 521.64 142.41 521.64 148.32"/><polygon class="cls-2" points="574.62 177.75 568.78 183.66 586.45 183.66 580.53 165.99 574.62 171.9 574.62 177.75"/><polygon class="cls-2" points="574.62 160.09 574.62 165.99 580.53 165.99 574.62 148.32 574.62 154.17 574.62 160.09"/><polygon class="cls-2" points="539.31 154.17 515.67 171.9 539.31 171.9 545.15 148.32 539.31 148.32 539.31 154.17"/><polygon class="cls-2" points="545.15 160.09 545.15 165.99 551.12 165.99 551.12 148.32 545.15 160.09"/><polygon class="cls-2" points="468.57 165.99 450.87 183.66 474.43 183.66 474.43 171.9 468.57 171.9 468.57 165.99"/><path class="cls-5" d="M708.06,327.92l4.1-8.46-.11-8.36L699.43,307l-5-6.36-16.05-1.73-20.88,4.4L641,320.22l-45.89,17.33-24.92,17-8.29,8.52.1,12.51,12.57-.12-4.08,8.41,0,4.16.06,4.2,4.26,4.15,16.78-.17-.11-4.2-8.36-2.5,16.59-10,25.09-4.63,8.3-8.46,25.12-.28,8.49,4.06.05,8.38L675.28,391l8.42,4.15,12.56-.17-.11-4.21-8.37-4-4.24-4.15-.18-12.56,4.22-.06.11,8.36,8.47,8.3,12.62-.1,4.16-.12-4.31-8.3-8.38.11-.07-8.41L700,357.31l4.12-8.46-4.29-8.31-.08-8.35Zm-142,39.25,4.15-4.21,4.22-.06v4.15l8.45,4.16-16.78.16Z"/><polygon class="cls-2" points="666.13 324.18 670.35 324.1 670.21 311.56 666.04 315.79 667.31 321.88 666.13 324.18"/><polygon class="cls-2" points="673.52 336.39 674.77 345 674.49 324.06 670.39 328.33 673.52 336.39"/><polygon class="cls-2" points="691.76 369.94 687.46 357.43 687.69 378.35 696.02 374.09 691.78 374.14 687.56 365.84 691.76 369.94"/><polygon class="cls-2" points="670.64 349.26 674.97 365.94 674.79 349.22 666.26 336.75 670.64 349.26"/><polygon class="cls-2" points="658.23 366.14 666.83 370.87 675.18 382.73 674.97 365.94 658.23 366.14"/><polygon class="cls-2" points="678.94 344.96 678.97 349.14 687.51 361.63 687.26 336.5 678.94 344.96"/><polygon class="cls-5" points="654.3 387.12 652.4 385.87 647.93 385.43 641.57 378.87 645.73 370.47 633.11 370.61 624.92 379.07 624.92 383.25 641.8 391.44 654.3 391.36 654.3 387.12"/><polygon class="cls-2" points="683.59 390.97 687.86 395.12 687.79 390.97 683.59 390.97"/><polygon class="cls-2" points="700.37 382.39 704.52 386.55 704.47 382.39 700.37 382.39"/><polygon class="cls-2" points="704.52 382.39 708.78 386.55 708.78 382.39 704.52 382.39"/><polygon class="cls-2" points="687.79 390.97 692.06 395.07 692 390.9 687.79 390.97"/><polygon class="cls-2" points="578.93 392.13 583.16 396.28 583.13 392.13 578.93 392.13"/><polygon class="cls-2" points="583.13 392.13 587.33 396.23 587.33 392.09 583.13 392.13"/><polygon class="cls-2" points="699.62 319.62 701.93 322.1 703.79 319.56 707.98 319.49 703.82 323.76 708.04 323.65 708.06 327.92 699.76 332.19 703.85 327.92 703.82 323.76 699.65 323.76 699.62 319.62"/><polygon class="cls-2" points="687.02 318.12 691.11 313.86 691.2 318.07 695.32 313.86 693.16 319.98 695.38 318.07 695.55 328.03 687.04 322.32 687.02 318.12"/><polygon class="cls-2" points="682.91 323.98 682.93 328.17 681.81 330.74 681.55 326.8 678.72 324.04 678.67 319.83 681.1 319.81 682.87 319.81 682.91 323.98"/><polygon class="cls-2" points="674.47 319.89 678.67 324.04 678.75 328.21 678.78 332.4 674.49 320.83 674.47 319.89"/><polygon class="cls-2" points="649.44 328.55 649.52 336.91 653.67 332.68 655.08 345.47 657.85 332.62 657.9 336.82 666.38 345.11 666.43 353.5 670.67 353.41 670.74 361.82 662.2 345.16 662.26 349.34 657.99 345.18 653.89 353.63 651.1 342.36 645.4 341.15 641.08 332.82 645.23 328.59 649.36 324.34 649.44 328.55"/><polygon class="cls-2" points="661.89 320.02 657.65 315.9 657.71 320.06 653.53 320.11 653.49 311.75 649.24 315.96 649.36 324.34 653.59 324.31 653.64 328.46 661.97 324.24 666.04 315.79 661.85 315.82 661.89 320.02"/><polygon class="cls-2" points="661.97 324.24 661.97 324.24 662 328.42 657.71 332.32 662.05 332.6 662.08 336.75 666.25 332.57 666.19 328.36 664.33 324.71 661.97 324.24"/><polygon class="cls-5" points="566.29 388.15 566.41 392.3 570.61 396.46 574.82 400.6 587.38 400.44 595.74 400.33 595.74 396.17 633.38 391.52 641.8 395.64 658.52 395.45 658.52 391.28 671.09 391.11 675.28 395.29 683.75 399.32 696.26 399.22 700.47 399.17 700.43 390.8 717.14 390.63 717.09 382.22 725.5 390.52 750.75 394.4 750.8 402.79 717.37 411.56 574.98 411.56 541.37 405.14 541.26 396.78 557.99 392.42 566.29 388.15"/><polygon class="cls-2" points="717.48 420.73 575.04 420.73 574.98 411.56 717.37 411.56 717.48 420.73"/><polygon class="cls-2" points="633.44 395.77 641.91 399.83 671.13 399.52 679.6 403.6 708.9 403.27 708.84 394.9 717.2 394.84 717.14 390.63 700.43 390.8 700.47 399.17 683.75 399.32 675.28 395.29 671.09 391.11 658.52 391.28 658.52 395.45 641.8 395.64 633.38 391.52 595.68 391.97 595.74 396.17 633.44 395.77"/><polygon class="cls-2" points="612.18 370.82 624.66 362.32 624.81 374.89 599.72 379.51 608.09 375.08 612.18 370.82"/><polygon class="cls-2" points="641.4 362.13 653.89 353.63 654.02 366.2 649.84 366.23 633.11 366.43 624.81 374.89 624.66 362.32 641.4 362.13"/><polygon class="cls-2" points="686.92 307.18 686.92 311.39 695.27 311.29 691.06 307.14 686.92 307.18"/><path class="cls-5" d="M122.7,324.26l-.1,9.14-4.63,9,4.45,9.23-.1,13.67-.14,9.1-9.1-.09-4.71,9.09,4.59,0,13.67.11,9.24-9,.1-9.16,4.55.05-.16,13.67-4.62,4.59-9.18,4.43,0,4.57,13.71.11,9.11-4.48,9.31-13.53.1-9.14,9.19-4.42,27.35.27,9,9.23,27.35,5.06,18,10.9-9,2.71-.08,4.55,18.26.21,4.56-4.49.09-4.58,0-4.56-4.42-9.17,13.63.16.17-13.69-9-9.16L236.72,330.1l-50-18.8-18-18.43L145.95,288l-17.4,1.91-5.45,7-13.75,4.43-.15,9.09,4.46,9.19ZM268.18,367l-18.2-.22,9.16-4.48,0-4.55,4.59.05,4.49,4.57Z"/><polygon class="cls-2" points="159.29 315.57 154.75 315.52 154.92 301.81 159.46 306.44 158.02 313.06 159.29 315.57"/><polygon class="cls-2" points="151.28 328.86 149.97 338.27 150.28 315.49 154.71 320.09 151.28 328.86"/><polygon class="cls-2" points="131.4 365.45 136.1 351.79 135.88 374.62 126.8 369.94 131.37 369.99 136 360.93 131.4 365.45"/><polygon class="cls-2" points="154.48 342.93 149.72 361.07 149.9 342.82 159.2 329.24 154.48 342.93"/><polygon class="cls-2" points="167.94 361.3 158.6 366.45 149.45 379.34 149.72 361.07 167.94 361.3"/><polygon class="cls-2" points="145.38 338.21 145.29 342.78 136.02 356.38 136.39 328.97 145.38 338.21"/><polygon class="cls-5" points="172.22 384.17 174.24 382.77 179.15 382.29 186.03 375.2 181.55 366 195.22 366.14 204.28 375.36 204.25 379.96 185.87 388.86 172.21 388.7 172.22 384.17"/><polygon class="cls-2" points="140.29 388.37 135.67 392.85 135.72 388.31 140.29 388.37"/><polygon class="cls-2" points="122.1 379 117.53 383.55 117.58 378.96 122.1 379"/><polygon class="cls-2" points="117.53 379 112.91 383.55 112.96 378.96 117.53 379"/><polygon class="cls-2" points="135.72 388.31 131.11 392.8 131.11 388.26 135.72 388.31"/><polygon class="cls-2" points="254.23 389.64 249.69 394.11 249.69 389.53 254.23 389.64"/><polygon class="cls-2" points="249.69 389.53 245.11 394.11 245.18 389.53 249.69 389.53"/><polygon class="cls-2" points="122.87 310.59 120.41 313.31 118.33 310.56 113.77 310.51 118.27 315.14 113.69 315.08 113.66 319.62 122.7 324.26 118.27 319.67 118.27 315.14 122.82 315.19 122.87 310.59"/><polygon class="cls-2" points="136.6 309.01 132.06 304.37 132.06 308.93 127.53 304.37 129.85 310.99 127.48 308.9 127.31 319.81 136.54 313.59 136.6 309.01"/><polygon class="cls-2" points="141.09 315.35 141.03 319.95 142.19 322.74 142.55 318.49 145.65 315.42 145.67 310.87 142.97 310.81 141.13 310.81 141.09 315.35"/><polygon class="cls-2" points="150.28 310.93 145.67 315.42 145.6 320.01 145.57 324.54 150.28 311.97 150.28 310.93"/><polygon class="cls-2" points="177.54 320.33 177.4 329.47 172.85 324.87 171.42 338.77 168.32 324.76 168.25 329.35 159.07 338.38 158.97 347.45 154.39 347.45 154.31 356.57 163.62 338.44 163.59 342.97 168.21 338.49 172.65 347.65 175.74 335.39 181.91 334.09 186.65 324.99 182.11 320.36 177.63 315.79 177.54 320.33"/><polygon class="cls-2" points="163.91 311.09 168.6 306.55 168.55 311.09 173.08 311.14 173.19 302.04 177.68 306.65 177.63 315.79 172.97 315.74 172.97 320.28 163.84 315.62 159.46 306.44 163.95 306.5 163.91 311.09"/><polygon class="cls-2" points="163.84 315.62 163.84 315.62 163.84 320.19 168.55 324.43 163.77 324.76 163.75 329.3 159.2 324.71 159.29 320.13 161.29 316.15 163.84 315.62"/><polygon class="cls-5" points="268.08 385.22 267.97 389.78 263.38 394.3 258.77 398.78 245.08 398.66 235.96 398.52 236.02 393.98 194.98 388.95 185.81 393.4 167.55 393.18 167.61 388.65 153.95 388.5 149.34 392.98 140.18 397.51 126.47 397.29 121.94 397.22 121.99 388.15 103.8 387.93 103.89 378.79 94.64 387.81 67.23 392.09 67.17 401.22 103.54 410.76 258.61 410.76 295.18 403.76 295.29 394.63 277.09 389.89 268.08 385.22"/><polygon class="cls-2" points="103.44 420.73 258.5 420.73 258.61 410.76 103.54 410.76 103.44 420.73"/><polygon class="cls-2" points="194.94 393.51 185.76 397.95 153.87 397.62 144.69 402.1 112.75 401.71 112.85 392.6 103.72 392.49 103.8 387.93 121.99 388.15 121.94 397.29 140.18 397.51 149.34 392.98 153.95 388.5 167.61 388.65 167.55 393.18 185.81 393.4 194.98 388.95 236.02 389.42 236.02 393.98 194.94 393.51"/><polygon class="cls-2" points="218.02 366.4 204.49 357.15 204.3 370.81 231.65 375.86 222.54 371.04 218.02 366.4"/><polygon class="cls-2" points="186.23 356.94 172.65 347.65 172.51 361.35 177.07 361.41 195.29 361.58 204.3 370.81 204.49 357.15 186.23 356.94"/><polygon class="cls-2" points="136.71 297.09 136.71 301.64 127.58 301.52 132.17 297.03 136.71 297.09"/><rect class="cls-2" x="329.98" y="122.21" width="29.96" height="3.75"/><rect class="cls-2" x="326.21" y="122.21" width="3.77" height="18.69"/><polygon class="cls-5" points="277.61 163.34 341.15 163.34 341.15 144.62 311.25 129.7 307.53 129.7 277.61 144.62 277.61 163.34"/><polygon class="cls-2" points="340.87 149.39 329.83 145.71 289.01 145.71 277.96 149.39 277.2 147.38 288.79 143.57 330.32 143.64 341.56 147.38 340.87 149.39"/><polygon class="cls-5" points="344.94 155.86 397.36 155.86 397.36 133.43 371.21 118.44 344.94 133.43 344.94 155.86"/><polygon class="cls-2" points="341.15 137.17 371.21 118.44 401.11 137.17 401.11 133.43 371.21 114.73 341.15 133.43 341.15 137.17"/><rect class="cls-2" x="367.45" y="137.17" width="7.48" height="18.69"/><rect class="cls-2" x="352.44" y="137.17" width="11.23" height="11.21"/><rect class="cls-2" x="378.6" y="137.17" width="11.29" height="11.21"/><polygon class="cls-5" points="3.92 420.37 58.38 420.37 58.38 397.04 31.17 381.48 3.92 397.04 3.92 420.37"/><polygon class="cls-2" points="0 400.97 31.17 381.48 62.26 400.97 62.26 397.04 31.17 377.6 0 397.04 0 400.97"/><rect class="cls-2" x="27.22" y="400.97" width="7.83" height="19.4"/><rect class="cls-2" x="11.66" y="400.97" width="11.69" height="11.6"/><rect class="cls-2" x="38.98" y="400.97" width="11.63" height="11.6"/><rect class="cls-1" x="382.38" y="238.63" width="9.15" height="36.39"/><rect class="cls-1" x="446.16" y="238.63" width="9.08" height="36.39"/><rect class="cls-1" x="318.7" y="311.45" width="63.71" height="109.28"/><rect class="cls-1" x="300.49" y="302.34" width="9.16" height="118.39"/><rect class="cls-1" x="528.13" y="302.34" width="9.07" height="118.39"/><rect class="cls-1" x="391.56" y="311.45" width="54.3" height="109.28"/><rect class="cls-1" x="391.56" y="238.63" width="54.64" height="63.71"/><polygon class="cls-1" points="382.41 302.34 319.07 302.34 319.07 293.23 382.41 275.06 382.41 302.34"/><polygon class="cls-1" points="455.62 302.34 519.05 302.34 519.05 293.23 455.62 275.06 455.62 302.34"/><rect class="cls-6" x="327.81" y="366.11" width="18.24" height="54.61"/><rect class="cls-6" x="355.13" y="366.11" width="18.2" height="54.61"/><rect class="cls-1" x="455.27" y="311.48" width="63.78" height="109.24"/><rect class="cls-6" x="464.42" y="366.11" width="18.13" height="54.61"/><rect class="cls-6" x="491.7" y="366.11" width="18.19" height="54.61"/><rect class="cls-6" x="409.71" y="366.11" width="18.26" height="54.61"/><polygon class="cls-6" points="346.05 329.69 336.98 320.55 327.81 329.69 327.81 356.97 346.05 356.97 346.05 329.69"/><polygon class="cls-6" points="427.97 329.69 418.85 320.55 409.71 329.69 409.71 356.97 427.97 356.97 427.97 329.69"/><polygon class="cls-6" points="427.97 252.29 418.85 247.75 409.71 252.29 409.71 265.92 427.97 265.92 427.97 252.29"/><polygon class="cls-6" points="482.55 329.69 473.51 320.55 464.42 329.69 464.42 356.97 482.55 356.97 482.55 329.69"/><polygon class="cls-6" points="509.88 329.69 500.84 320.55 491.7 329.69 491.7 356.97 509.88 356.97 509.88 329.69"/><polygon class="cls-6" points="373.33 329.69 364.23 320.55 355.13 329.69 355.13 356.97 373.33 356.97 373.33 329.69"/><path class="cls-6" d="M428,284.18a9.13,9.13,0,1,1-9.12-9.12,9.07,9.07,0,0,1,9.12,9.12"/><path class="cls-1" d="M418.85,202.2h0a27.31,27.31,0,0,0-27.29,27.28H446.2a27.32,27.32,0,0,0-27.35-27.28"/><path class="cls-1" d="M437.06,165.8h-36.4v36.78a36.14,36.14,0,0,1,18.19-4.92h0a36.27,36.27,0,0,1,18.22,4.92Z"/><polygon class="cls-6" points="418.85 120.25 400.66 156.66 437.06 156.66 418.85 120.25"/><polygon class="cls-6" points="305.05 275.06 300.49 293.23 309.57 293.23 305.05 275.06"/><polygon class="cls-6" points="532.71 275.06 528.13 293.23 537.2 293.23 532.71 275.06"/><polygon class="cls-6" points="450.73 211.33 446.19 229.55 455.27 229.55 450.73 211.33"/><polygon class="cls-6" points="387.08 211.33 382.41 229.55 391.56 229.55 387.08 211.33"/><rect class="cls-6" x="701.69" y="164.12" width="49.1" height="30.24"/><polygon class="cls-6" points="754.6 205.75 697.93 205.75 701.69 198.16 750.8 198.16 754.6 205.75"/><rect class="cls-1" x="705.45" y="167.94" width="41.59" height="22.64"/><rect class="cls-1" x="697.93" y="205.75" width="56.67" height="3.76"/><rect class="cls-6" x="671.42" y="164.12" width="22.72" height="15.16"/><polygon class="cls-6" points="697.93 186.84 667.68 186.84 671.42 183.05 694.14 183.05 697.93 186.84"/><rect class="cls-1" x="675.23" y="167.94" width="15.09" height="7.58"/><rect class="cls-1" x="667.68" y="186.84" width="30.25" height="3.73"/><rect class="cls-1" x="743.27" y="200.09" width="3.77" height="1.89"/><rect class="cls-1" x="735.68" y="200.09" width="3.82" height="1.89"/><rect class="cls-1" x="728.14" y="200.09" width="3.78" height="1.89"/><rect class="cls-1" x="720.6" y="200.09" width="3.73" height="1.89"/><rect class="cls-1" x="713.04" y="200.09" width="3.74" height="1.89"/><rect class="cls-1" x="705.45" y="200.09" width="3.77" height="1.89"/><rect class="cls-1" x="686.58" y="177.37" width="3.73" height="1.91"/><rect class="cls-1" x="731.92" y="152.82" width="3.76" height="2.13"/><rect class="cls-1" x="731.92" y="156.59" width="3.76" height="2.16"/><rect class="cls-1" x="731.92" y="160.37" width="3.76" height="2.14"/><rect class="cls-1" x="724.33" y="152.82" width="3.81" height="2.13"/><rect class="cls-1" x="716.78" y="152.82" width="3.82" height="2.13"/><rect class="cls-1" x="709.22" y="152.82" width="3.82" height="2.13"/><rect class="cls-1" x="701.69" y="152.82" width="3.76" height="2.13"/><rect class="cls-1" x="694.14" y="152.82" width="3.79" height="2.13"/><rect class="cls-1" x="686.58" y="152.82" width="3.73" height="2.13"/><rect class="cls-1" x="678.99" y="152.82" width="3.77" height="2.13"/><rect class="cls-1" x="678.99" y="156.59" width="3.77" height="2.16"/><rect class="cls-1" x="678.99" y="160.37" width="3.77" height="2.14"/><rect class="cls-3" x="615.34" y="173.17" width="24.5" height="48.92"/><rect class="cls-1" x="656.36" y="176.24" width="3.71" height="2.22"/><rect class="cls-1" x="648.77" y="176.24" width="3.77" height="2.22"/><rect class="cls-1" x="641.2" y="176.24" width="3.81" height="2.22"/><rect class="cls-5" x="620.54" y="197.6" width="14.12" height="4.91"/><rect class="cls-5" x="620.54" y="187.87" width="14.12" height="4.86"/><rect class="cls-5" x="620.54" y="207.4" width="14.12" height="4.9"/><rect class="cls-3" x="595.8" y="192.73" width="14.68" height="29.37"/><rect class="cls-5" x="598.91" y="207.4" width="8.52" height="2.94"/><rect class="cls-5" x="598.91" y="201.53" width="8.52" height="2.94"/><rect class="cls-5" x="598.91" y="213.27" width="8.52" height="2.91"/><path class="cls-1" d="M623.25,159.52l-2.71-2.7a29.24,29.24,0,0,1,41.35,0l-2.68,2.7a25.46,25.46,0,0,0-36,0"/><path class="cls-1" d="M654.43,164.42a18.63,18.63,0,0,0-26.36,0l-2.71-2.77a22.47,22.47,0,0,1,31.78,0Z"/><path class="cls-1" d="M649.54,169.23a11.77,11.77,0,0,0-16.63,0l-2.71-2.77a15.62,15.62,0,0,1,22,0Z"/><path class="cls-1" d="M371.8,193.79l-1.49-1.47a18.84,18.84,0,0,0,0-26.56l1.49-1.49a20.89,20.89,0,0,1,0,29.52"/><path class="cls-1" d="M368.3,190.28l-1.53-1.52a13.54,13.54,0,0,0,4.08-9.75,13.76,13.76,0,0,0-4.08-9.76l1.53-1.48a16.08,16.08,0,0,1,0,22.5"/><path class="cls-1" d="M364.77,186.75l-1.45-1.43a9,9,0,0,0,0-12.56l1.45-1.46a10.93,10.93,0,0,1,0,15.44"/><path class="cls-1" d="M335.57,193.79a20.89,20.89,0,0,1,0-29.52l1.48,1.49a18.85,18.85,0,0,0,0,26.56Z"/><path class="cls-1" d="M339.12,190.28a15.73,15.73,0,0,1,0-22.5l1.42,1.48a13.93,13.93,0,0,0-4,9.76,13.7,13.7,0,0,0,4,9.75Z"/><path class="cls-1" d="M342.57,186.75a10.92,10.92,0,0,1,0-15.44l1.52,1.46a8.8,8.8,0,0,0,0,12.56Z"/><path class="cls-1" d="M360,179a5.61,5.61,0,1,1-5.63-5.58A5.61,5.61,0,0,1,360,179"/><rect class="cls-2" x="542.4" y="240.3" width="21.95" height="21.95"/><rect class="cls-2" x="549.72" y="262.29" width="7.26" height="29.23"/><rect class="cls-2" x="549.72" y="284.26" width="29.25" height="7.25"/><rect class="cls-2" x="571.67" y="211.07" width="7.3" height="124.41"/><polygon class="cls-2" points="586.29 211.01 564.35 211.01 575.31 196.41 586.29 211.01"/><rect class="cls-2" x="593.62" y="247.62" width="7.32" height="58.55"/><rect class="cls-2" x="571.67" y="298.86" width="29.27" height="7.3"/><path class="cls-2" d="M608.24,244a11,11,0,1,1-10.95-11,11,11,0,0,1,10.95,11"/><path class="cls-2" d="M586.29,331.79a11,11,0,1,1-11-11,11,11,0,0,1,11,11"/><polygon class="cls-1" points="195.86 64.51 236.72 89.05 244.91 89.05 220.35 121.71 236.72 121.71 253.13 121.71 253.13 97.21 269.45 89.05 285.76 56.36 285.76 48.19 261.27 48.19 253.13 64.51 195.86 64.51"/><polygon class="cls-2" points="244.91 64.51 228.58 56.36 228.58 64.51 244.91 64.51"/><polygon class="cls-2" points="293.95 48.19 285.76 48.19 285.76 56.3 293.95 48.19"/><polygon class="cls-1" points="836.51 353.94 815.93 366.27 811.83 366.27 824.14 382.77 815.93 382.77 807.7 382.77 807.7 370.4 799.45 366.27 791.27 349.85 791.27 345.75 803.58 345.75 807.7 353.94 836.51 353.94"/><polygon class="cls-2" points="811.83 353.94 820.02 349.85 820.02 353.94 811.83 353.94"/><polygon class="cls-2" points="787.11 345.75 791.27 345.75 791.27 349.82 787.11 345.75"/><polygon class="cls-6" points="567.89 48.42 582.03 29.57 549.05 48.42 567.89 48.42"/><polygon class="cls-3" points="526.7 23.03 544.37 48.42 553.78 53.15 539.67 53.15 549.05 57.81 553.78 62.53 558.48 57.81 563.24 57.81 567.89 53.15 572.6 48.42 567.89 43.68 558.48 43.68 526.7 23.03"/><polygon class="cls-2" points="430.97 0 406.11 0 418.55 3.16 430.97 0"/><polygon class="cls-2" points="369.42 50.16 369.74 50.61 410.84 10.31 336.72 20.6 369.05 50.61 369.42 50.16"/><polygon class="cls-2" points="384.83 0.12 352.44 12.96 406.06 5.54 384.83 0.12"/><polygon class="cls-6" points="364.15 53.43 331.34 23.03 305.54 69.53 364.15 53.43"/><polygon class="cls-2" points="298.65 70.95 315.95 39.64 285.84 74.13 298.39 71.31 298.65 70.95"/><polygon class="cls-6" points="531.52 69.53 505.64 23.03 472.96 53.32 531.52 69.53"/><polygon class="cls-2" points="281.02 80.72 274.5 111.96 275.39 111.96 294.81 77.62 281.02 80.72"/><polygon class="cls-2" points="452.27 0.12 431.07 5.54 484.64 12.96 452.27 0.12"/><polygon class="cls-2" points="538.43 70.92 538.66 71.31 551.18 74.13 521.03 39.64 538.4 70.92 538.43 70.92"/><polygon class="cls-2" points="467.34 50.61 467.64 50.16 467.98 50.61 500.36 20.6 426.23 10.31 467.34 50.61"/><polygon class="cls-6" points="461.12 52.04 418.55 10.31 376.02 51.99 420.75 51.99 420.75 51.99 461.12 52.04"/><polygon class="cls-2" points="474.37 59.29 511.54 110.05 531.41 75.07 474.37 59.29"/><polygon class="cls-2" points="542.21 77.62 561.64 111.96 563.19 111.96 556.02 80.72 542.21 77.62"/><polygon class="cls-5" points="516.6 111.96 555.49 111.96 536.06 77.68 516.6 111.96"/><polygon class="cls-2" points="305.66 75.07 325.54 110.05 362.71 59.29 305.66 75.07"/><polygon class="cls-5" points="281.56 111.96 320.41 111.96 300.95 77.68 281.56 111.96"/><polygon class="cls-5" points="330.81 111.96 410.24 111.96 369.52 59.12 330.81 111.96"/><polygon class="cls-5" points="426.84 111.96 506.23 111.96 467.53 59.12 426.84 111.96"/><polygon class="cls-2" points="420.75 57.35 416.33 57.35 374.89 57.35 416.99 111.96 420 111.96 462.1 57.35 420.75 57.35"/><path class="cls-7" d="M116,109.91s3.22,11,6.44,0"/><path class="cls-7" d="M130.2,109.91s3.21,11,6.44,0"/><polygon class="cls-5" points="837.3 391.49 837.3 395.03 837.3 398.5 840.73 401.93 840.73 405.3 840.83 408.83 837.4 412.31 837.4 415.85 837.4 419.32 851.2 419.32 851.2 415.85 851.2 412.31 847.66 408.83 847.66 405.41 847.66 401.82 851.2 398.45 851.2 394.97 851.2 391.49 837.3 391.49"/><polygon class="cls-5" points="811.67 391.49 811.67 394.97 811.67 398.45 815.1 401.93 815.22 405.41 815.35 408.83 811.67 412.37 811.67 415.85 811.67 419.32 825.66 419.32 825.66 415.85 825.61 412.31 822.13 408.83 822.13 405.41 822.04 401.93 825.66 398.45 825.54 394.92 825.66 391.49 811.67 391.49"/><polygon class="cls-5" points="786.14 391.49 786.14 395.03 786.14 398.45 789.5 401.93 789.55 405.41 789.55 408.83 786.14 412.31 786.21 415.85 786.21 419.32 800.01 419.32 800.06 415.79 800.06 412.37 796.46 408.83 796.46 405.41 796.46 401.93 800.01 398.41 800.01 394.92 800.01 391.49 786.14 391.49"/><path class="cls-8" d="M800,398s5.83,19.92,11.66,0"/><path class="cls-8" d="M825.66,398s5.84,19.92,11.67,0"/><path class="cls-7" d="M144.36,109.91s3.22,11,6.44,0"/><path class="cls-7" d="M158.52,109.91s3.22,11,6.44,0"/><path class="cls-7" d="M172.68,109.91s3.22,11,6.44,0"/><path class="cls-7" d="M186.84,109.91s3.22,11,6.45,0"/><path class="cls-7" d="M201,109.91s3.22,11,6.45,0"/><path class="cls-1" d="M209.85,221.86V206.66a14.46,14.46,0,0,0-6.51-1.6,14.8,14.8,0,0,0-13.91,9.75,4.43,4.43,0,0,1-4.49,2.91,5.65,5.65,0,0,0-.78,0,8.43,8.43,0,1,0,0,16.87h38.37Z"/><path class="cls-2" d="M83.46,205.26A4.79,4.79,0,0,0,88.25,210H99a7.91,7.91,0,0,0,5.11-1.73,8.56,8.56,0,0,0-8-5.59,7,7,0,0,0-1.49.12,3.67,3.67,0,0,1-3.87-1.74c-.11-.19-.25-.36-.37-.54a3.74,3.74,0,0,1-1.27,0,4.47,4.47,0,0,0-.88-.07A4.78,4.78,0,0,0,83.46,205.26Z"/><path class="cls-2" d="M99,212.39H88.25a7.13,7.13,0,1,1,0-14.25,12.39,12.39,0,0,0-19.82,5,3.62,3.62,0,0,1-3.8,2.42H64a7.1,7.1,0,0,0,0,14.2H96.14a8.6,8.6,0,0,0,8.57-8.59c0-.13,0-.25,0-.39A10.63,10.63,0,0,1,99,212.39Z"/><path class="cls-2" d="M99.4,195.13A7.55,7.55,0,0,0,93,198.8a3.73,3.73,0,0,1-3.87,1.76,4.47,4.47,0,0,0-.88-.07,4.77,4.77,0,1,0,0,9.54H99a7.8,7.8,0,0,0,5.74-2.26,7.16,7.16,0,0,0,2-5.16C106.71,199,103.71,195.13,99.4,195.13Z"/><rect class="cls-9" x="112.87" y="467.04" width="278.3" height="321.26"/><path class="cls-9" d="M458,764.6v.31c12.8.68,15.52,8.86,28.67,7.31l-1.15,9.33c-14.22,1.49-23.35-8.67-34.43-9.43a28.39,28.39,0,0,0-7.51.46l1.37-7c-15-1.91-23.16-12.43-23.16-32.26,0-24.88,15.67-33.66,29.31-33.66,14.5,0,27.52,8.94,27.52,33.66C478.64,750,471.41,761.14,458,764.6ZM450.71,757c12.37,0,15.84-11.68,15.84-23.36,0-9.91-2.61-23.9-16-23.9-12.46,0-16.54,11.53-16.54,23.13C434,743.92,436.7,757,450.71,757Z"/><path class="cls-9" d="M531,765.5H515.24v-6.34c-3.38,4.89-9.29,7.6-15.7,7.6-9.72,0-15.08-5.35-15.08-16.8V727.46c0-2-.79-2.62-2.46-2.73l-3.09-.17v-8H496v30.81c0,5.91.94,10.41,7.18,10.41,6.81,0,10.41-4.59,10.41-9.63V727.7c0-2.19-.6-2.85-2.46-3l-3.1-.17v-8H525.2v38.08c0,2.17.6,2.64,2.41,2.83l3.42.31Z"/><path class="cls-9" d="M551.23,757.43l5.53.3v7.77H533.62v-7.35l3.2-.33c1.78-.22,2.82-.78,2.82-3.14v-27c0-2.19-.54-2.85-2.41-2.85l-3.4-.2v-8h17.4Zm-6.82-61.68a7.22,7.22,0,0,1,7.4,7.33c0,4.08-3.13,7.08-7.49,7.08s-7.41-3-7.41-7.08A7.15,7.15,0,0,1,544.41,695.75Z"/><path class="cls-9" d="M582.34,747.41l-8.05,10,4.55.3v7.77H558.61v-7.68l3-.31a5.19,5.19,0,0,0,3.92-2.33l11.16-14-12-16.54-4.95-.59V716.6h22.63v7.63l-2.82.18c-1.56.15-2,1.36-1.13,2.56l5.54,7.4,7.5-9.74-4-.31V716.6h19.71v7.56l-2.9.17c-1.64.09-2.63.91-3.92,2.46l-10.69,13.54,12.73,16.9,5,.6v7.68H584.29v-7.68l3-.22c1.84-.09,1.84-1.23,1-2.42Z"/><path class="cls-9" d="M648.36,754.68c0,2.17.58,2.75,2.41,2.83l3.13.22v7.77h-15.5v-5.63l-.28-.09a16.19,16.19,0,0,1-13.3,7c-13.72,0-19.46-9.71-19.46-23.59,0-17.14,8.15-28,25.68-28a54.76,54.76,0,0,1,17.32,3.41ZM637,724.85a20.18,20.18,0,0,0-7.45-1.24c-9.28,0-12.37,8.65-12.37,19.14,0,8.07,2,15.75,10.1,15.75,6,0,9.71-4.27,9.71-8.44Z"/><path class="cls-9" d="M684.44,716.29v-9.87c0-1.63-.86-2.18-2.5-2.27l-4.17-.31v-7.68h18.07v59.09c.08,1.71.76,2.25,2.41,2.25l3.42.22v7.77H685.92v-5.72l-.29-.1a15,15,0,0,1-13.23,7.07c-15.18,0-19.64-11.66-19.64-23.8,0-16.62,8.56-27.84,23.73-27.84A25.53,25.53,0,0,1,684.44,716.29Zm0,8.87a17.48,17.48,0,0,0-7.37-1.56c-9.25,0-12.35,8.72-12.35,18.27,0,8.82,2.12,16.35,10.5,16.35,5.45,0,9.23-3.63,9.23-7.9Z"/><path class="cls-9" d="M743.22,754.68c0,2.17.6,2.75,2.42,2.83l3.11.22v7.77H733.28v-5.63l-.27-.09a16.22,16.22,0,0,1-13.32,7c-13.71,0-19.45-9.71-19.45-23.59,0-17.14,8.13-28,25.66-28a54.6,54.6,0,0,1,17.31,3.41Zm-11.31-29.84a20.22,20.22,0,0,0-7.45-1.24c-9.26,0-12.37,8.65-12.37,19.14,0,8.07,2,15.75,10.1,15.75,6,0,9.71-4.27,9.71-8.44Zm-3.5-35.78,4.6,2.1c4,1.86,3.21,5,.41,7.73l-12.47,12-3.81-3.23Z"/><path class="cls-9" d="M439.33,650.94c-7.18,0-10.71,5.09-10.71,13.64,0,8.87,2.93,14.37,10.8,14.19a15,15,0,0,0,4.1-.52c1-.32,1.18-.76,1.18-1.86v-4.55l5.76.45v9.75c-3.08,1.61-7.54,2.26-11.14,2.26-11.51,0-17.78-6.38-17.78-19.27,0-14.73,9.05-19.64,17.78-19.64a25,25,0,0,1,10.59,2.32v9.59l-5.77.41v-4.46c0-1-.16-1.49-1.18-1.87A14.31,14.31,0,0,0,439.33,650.94Z"/><path class="cls-9" d="M488.92,650.94l-3.55-.3V646h12.92l11.52,32.59h.11l3.22.24v4.72H498.52V679l2.16-.18c1.2-.09,1.78-.42,1.37-1.64l-1.21-3.56H487.6l-1.67,5,3.37.24v4.72h-13V679l1.83-.18c1-.09,1.35-.47,1.66-1.53Zm.06,17.55h10.53l-5.14-16.1h-.13Z"/><path class="cls-9" d="M559.7,671.58h.14l9.6-25.55H580.7v4.61l-1.9.16c-1,.1-1.68.42-1.64,2l1.45,25.85,3.51.24v4.72H568.54V679l2-.18c.91,0,1.51-.36,1.47-1.45l-1.06-19.93h-.12L562.11,680h-5.35l-8.59-22.27H548l-1.15,20.9,3.69.24v4.72H537.25V679l2-.18a1.51,1.51,0,0,0,1.46-1.45l1.45-26.33-3.4-.23V646h11.4Z"/><path class="cls-9" d="M607.76,679l1.86-.18c1-.09,1.65-.42,1.65-1.53V651l-3.24-.18V646h16.17c8.33,0,13.42,3.95,13.42,11.57,0,8.52-6.13,12.89-14.68,12.89h-4.75v8.13l5.4.24v4.72H607.76Zm14.44-14.09c4.92,0,8.29-1.63,8.29-6.64,0-5.86-3.37-6.81-8.88-6.81h-3.43v13.45Z"/><path class="cls-9" d="M673.3,671.41c0,5.54,2.94,7.17,7.45,7.17s7.37-2.26,7.37-6.9V651l-3.32-.18V646h13.4v4.61l-1.89.16a1.5,1.5,0,0,0-1.54,1.69v20.18c0,7.41-5.7,11.65-14.29,11.65-9.27,0-14-3.69-14-12.58V651l-3.18-.18V646h13.64v4.61l-1.86.16c-1.06.1-1.73.42-1.73,1.87Z"/><path class="cls-9" d="M741.75,673.14c0-3.59-3.17-4.61-7.17-5.64-5.56-1.55-10.83-3.82-10.83-11.09,0-6.82,5.36-11,13.13-11a23.87,23.87,0,0,1,10.65,2.32v8.43l-5.78.43v-3.32c0-1-.17-1.49-1.12-1.87a15.45,15.45,0,0,0-3.75-.45c-3.3,0-5.93,1.42-5.93,4.91s3.32,4.4,7.54,5.76c5.14,1.6,10.55,4,10.55,11.24,0,7.45-5.86,11.46-13.64,11.46a26.58,26.58,0,0,1-11.46-2.26v-8.91l5.78-.47v3.52c0,1,.17,1.52,1.18,1.86a14.17,14.17,0,0,0,4.09.49C738.76,678.54,741.75,677.41,741.75,673.14Z"/><path class="cls-4" d="M448.21,581.82c0,20.59,10.74,26.69,27.55,26.69s27.35-8.4,27.35-25.69v-77l-12.24-.63V487.28h49.9v17.09l-7,.61c-3.73.42-6.07,2.12-6.07,6.31v75.15c0,27.54-20.79,43.51-52.76,43.51-34.53,0-52.22-13.84-52.22-46.94V505.84l-12.21-.63V487.28h51v17.09l-7,.61c-4,.42-6.3,1.71-6.3,7Z"/><path class="cls-4" d="M543,610.19l6.93-.6c3.56-.41,6.1-1.72,6.1-5.92V505.84l-12-.63V487.28H645.7v35l-21.43,1.43v-8.45c0-4-.47-6.47-6.09-6.47H581.7V546h51.77V567.5H581.7V608.7l18.72.65v17.83H543Z"/><path class="cls-4" d="M707.57,505.66c-26.47,0-39.71,18.86-39.71,50.68,0,33,10.94,53.41,40.12,52.83a53.1,53.1,0,0,0,15.42-1.95c3.77-1.24,4.44-3,4.44-6.94V583.47l21.43,1.43v36.41c-11.6,6.15-28.18,8.64-41.69,8.64-42.67,0-66-24-66-71.93,0-54.94,33.63-73.25,66-73.25a97.17,97.17,0,0,1,39.57,8.64v35.8l-21.43,1.41V514.25c0-4-.66-5.62-4.45-6.92C717.23,506,711.77,505.66,707.57,505.66Z"/><path class="cls-4" d="M189,535.46l-26.28,13.49-9.88-17.3,40.85-25.38h22V630.66L239,631.78v19.05H160.91v-18.4l21.58-1.35c4.23-.24,6.51-1.82,6.51-7.38Z"/><path class="cls-4" d="M347.82,577.21c0,53.17-18.42,75.89-52.55,75.89-34.3,0-51.59-22.71-51.59-75,0-51.67,21.1-74.76,53.17-74.76C328.28,503.37,347.82,524.26,347.82,577.21Zm-26.7.46c0-40.81-10.14-52.29-24.91-52.29-15.71,0-25.37,12.8-25.37,55.23,0,38.81,9.66,50.94,24.9,50.94C310.57,631.54,321.11,620.35,321.11,577.66Z"/><path class="cls-4" d="M168.87,699.9l-5.55-.58v-7.06h20l17.84,50.45h.1l5,.23v7.48H183.69v-7.08L187,743c1.81-.15,2.74-.68,2.1-2.57L187.29,735H166.85l-2.63,7.7,5.21.23v7.48h-20.2v-7.08l2.88-.29c1.54-.15,2.05-.76,2.63-2.45Zm0,27.08h16.26l-7.86-24.93H177Z"/><path class="cls-4" d="M208.18,743.33l3.1-.29c1.48-.11,2.29-.68,2.29-2.45V700l-5-.25v-7.45h15.73l24.72,40.16h.19V700l-5.77-.25v-7.45h21.34v7.06l-3.17.28c-1.28.11-2.1.87-2.1,2.69v48.12H249.37l-25.31-40.76h-.16v33.06l5.65.23v7.48H208.18Z"/><path class="cls-4" d="M287.15,751.55c-15.55,0-25.36-10.13-25.36-30.08,0-22.39,14.06-30.28,26.31-30.28,13.06,0,24.78,8,24.78,30.28C312.88,741.51,302.46,751.55,287.15,751.55Zm.61-8.84c11.09,0,14.26-10.47,14.26-21,0-8.9-2.34-21.53-14.45-21.53-11.18,0-14.81,10.43-14.81,20.86C272.76,731,275.18,742.71,287.76,742.71Z"/><path class="cls-4" d="M341.08,734.14c0-5.51-5-7.07-11.1-8.74-8.65-2.34-16.68-5.88-16.68-17.08,0-10.62,8.19-17.12,20.27-17.12a37.69,37.69,0,0,1,16.4,3.63v13.12l-8.88.58v-5.09c0-1.63-.29-2.34-1.82-2.86a20.42,20.42,0,0,0-5.7-.67c-5.17,0-9.17,2-9.17,7.46s5.06,6.94,11.6,8.95c8,2.53,16.35,6.13,16.35,17.41,0,11.52-9.07,17.83-21.17,17.83A39.81,39.81,0,0,1,313.54,748V734.14l8.94-.62v5.31c0,1.73.23,2.39,1.81,2.93a22.15,22.15,0,0,0,6.32.8C336.35,742.56,341.08,740.7,341.08,734.14Z"/><rect class="cls-10" x="129.18" y="666.24" width="245.69" height="6.04"/></g></g></svg>