<?xml version="1.0" encoding="iso-8859-1"?>
<!-- Generator: Adobe Illustrator 18.0.0, SVG Export Plug-In . SVG Version: 6.00 Build 0)  -->
<!DOCTYPE svg PUBLIC "-//W3C//DTD SVG 1.1//EN" "http://www.w3.org/Graphics/SVG/1.1/DTD/svg11.dtd">
<svg xmlns="http://www.w3.org/2000/svg" xmlns:xlink="http://www.w3.org/1999/xlink" version="1.1" id="Capa_1" x="0px" y="0px" viewBox="0 0 297 297" style="enable-background:new 0 0 297 297;" xml:space="preserve" width="512px" height="512px">
<g>
	<path d="M272.538,58.634V33.851c0-5.458-4.425-9.884-9.884-9.884h-97.847c-5.458,0-9.884,4.425-9.884,9.884v23.72H32.739   C14.686,57.572,0,72.258,0,90.311v149.983c0,18.053,14.686,32.739,32.739,32.739h231.522c18.053,0,32.739-14.686,32.739-32.739   V90.311C297,75.117,286.596,62.31,272.538,58.634z M19.767,126.262h15.662c-6.954,11.384-10.967,24.752-10.967,39.04   s4.013,27.656,10.967,39.04H19.767V126.262z M44.229,165.302c0-30.519,24.829-55.348,55.348-55.348s55.348,24.828,55.348,55.348   s-24.828,55.348-55.348,55.348S44.229,195.821,44.229,165.302z M163.724,126.262h113.509v78.08H163.724   c6.954-11.384,10.967-24.752,10.967-39.04S170.678,137.646,163.724,126.262z M174.691,43.735h78.08v13.837h-78.08V43.735z    M32.739,77.339h231.522c7.153,0,12.972,5.819,12.972,12.972v16.184H146.227C133.403,96.3,117.195,90.187,99.577,90.187   S65.751,96.3,52.926,106.495H19.767V90.311C19.767,83.158,25.586,77.339,32.739,77.339z M264.261,253.265H32.739   c-7.153,0-12.972-5.819-12.972-12.972v-16.184h33.159c12.825,10.195,29.032,16.308,46.651,16.308s33.826-6.113,46.651-16.308   h131.006v16.184C277.233,247.446,271.414,253.265,264.261,253.265z" fill="#FFFFFF"/>
	<path d="M131.027,196.753c8.4-8.401,13.027-19.57,13.027-31.451c0-11.881-4.627-23.05-13.027-31.451   c-8.401-8.4-19.57-13.027-31.451-13.027s-23.05,4.627-31.451,13.027c-8.4,8.401-13.027,19.57-13.027,31.451   c0,11.88,4.627,23.05,13.027,31.451c8.401,8.4,19.57,13.027,31.451,13.027S122.626,205.153,131.027,196.753z M74.866,165.302   c0-6.601,2.57-12.806,7.238-17.473c4.667-4.668,10.872-7.238,17.473-7.238s12.806,2.57,17.473,7.238   c4.668,4.667,7.238,10.872,7.238,17.473s-2.57,12.806-7.238,17.473c-4.667,4.668-10.872,7.238-17.473,7.238   s-12.806-2.57-17.473-7.238C77.436,178.108,74.866,171.903,74.866,165.302z" fill="#FFFFFF"/>
	<path d="M192.235,102.047h48.923c5.458,0,9.884-4.425,9.884-9.884s-4.425-9.884-9.884-9.884h-48.923   c-5.458,0-9.884,4.425-9.884,9.884S186.776,102.047,192.235,102.047z" fill="#FFFFFF"/>
</g>
<g>
</g>
<g>
</g>
<g>
</g>
<g>
</g>
<g>
</g>
<g>
</g>
<g>
</g>
<g>
</g>
<g>
</g>
<g>
</g>
<g>
</g>
<g>
</g>
<g>
</g>
<g>
</g>
<g>
</g>
</svg>
