<svg xmlns="http://www.w3.org/2000/svg" viewBox="0 0 128 128"><defs><style>.cls-1{fill:#006f7a;}</style></defs><title>Ativo 55</title><g id="Camada_2" data-name="Camada 2"><g id="Camada_1-2" data-name="Camada 1"><path class="cls-1" d="M67.08,0a10.88,10.88,0,0,1,.58,3.46q0,3.65-.77,3.65A29.7,29.7,0,0,0,60,8.74q-5.19,1.63-5.57,3Q53,16.91,53,27.1V99.94q0,9.42,1.54,13.84,1,3.08,13.07,3.08h5a46,46,0,0,0,21.53-5,27.83,27.83,0,0,0,7.4-6.53A36.7,36.7,0,0,0,108,94.56q.38-1.15,2.69-1.15,4.61,0,5.77,1.15c-6.28,17.68-9.84,29.09-10.48,33.44h22V0Z"/><path class="cls-1" d="M12.3,120.89a30.71,30.71,0,0,0,7.21-1.35q4.9-1.35,5.48-2.88,1.15-4.42,1.15-16.91V26.33q0-11.72-1.54-14.41-1-1.54-5.38-3.17a21.41,21.41,0,0,0-6.53-1.63q-.77,0-.77-3.27,0-3.46.38-3.84H0V128H12.3q-.77-.77-.77-3.27Q11.53,120.89,12.3,120.89Z"/></g></g></svg>